<svg width="34" height="12" viewBox="0 0 34 12" fill="none" xmlns="http://www.w3.org/2000/svg">
<g clip-path="url(#clip0_667_13518)">
<path d="M18.4257 5.74112C20.5575 4.75445 20.8728 1.53467 17.8404 1.53467H14.3288L13.031 4.13127H13.6417L12.0895 10.3371H16.1609C19.1313 10.363 20.4671 6.79399 18.4257 5.74112V5.74112ZM16.1609 8.0781H15.1431L15.5247 6.67598H16.4917C17.6368 6.90961 16.9244 8.13 16.1609 8.0781V8.0781ZM16.7716 5.09196H15.9065L16.1609 3.87157H17.1279C18.0622 4.10528 17.2552 5.14393 16.7716 5.09196Z" fill="#005FAF" stroke="#005FAF" stroke-width="0.488868"/>
<path d="M26.7618 4.85064L28.0949 2.44918L26.291 1.48901L26.0557 1.78534C25.0825 1.25969 19.9867 1.98548 19.6676 7.11487C19.8583 11.4178 24.5835 10.6438 25.047 10.3708L26.3466 7.62943C25.0738 8.48491 22.4676 8.8956 22.3573 6.3258C22.5859 4.20668 25.0379 3.4153 26.7618 4.85064V4.85064ZM33.4143 1.53443H29.3159L28.0132 4.0533H28.6824L25.5938 10.3369H28.5834L29.1972 8.8213H31.0324L31.0781 10.3369H33.8301L33.4143 1.53443V1.53443ZM30.0286 6.78072L31.0323 4.33615L31.078 6.78072H30.0286Z" fill="#005FAF" stroke="#005FAF" stroke-width="0.488868"/>
<path d="M7.82021 9.9164L7.97942 9.86927L7.80482 9.62305L7.82021 9.9164ZM5.20644 9.87448L5.17565 10.0946C5.25489 10.0867 5.35245 10.1564 5.39134 10.0002C5.38842 9.87858 5.29765 9.87187 5.20644 9.87448V9.87448ZM6.47488 9.86927C6.46167 9.80933 6.41264 9.76518 6.28998 9.80643L6.33106 10.0317C6.43183 10.0089 6.48363 9.94804 6.47488 9.86927ZM3.60945 9.68492L3.56042 9.88505C3.63922 9.8884 3.73152 9.95363 3.78384 9.83502C3.78734 9.76071 3.79033 9.68671 3.60945 9.68492ZM6.36703 10.1994L6.403 10.43C6.48713 10.4321 6.56389 10.3806 6.54164 10.2728C6.52019 10.1692 6.43489 10.1856 6.36703 10.1994V10.1994Z" fill="#005FAF"/>
<path d="M9.70651 1.65273C6.9873 0.239211 3.73983 0.278523 1.14897 1.59108C-0.187022 3.99098 -0.229561 7.3488 1.14897 10.3228C4.00331 11.7967 7.16023 11.6996 9.72657 10.3845C10.9327 7.85948 11.1319 4.82114 9.70651 1.65273V1.65273ZM5.11406 8.81883L4.95288 8.82069C4.91297 8.36622 4.80651 7.98427 4.57813 7.69196C3.53086 6.35185 1.39005 7.36079 1.94014 5.0833C2.22616 3.91898 5.48867 3.23228 5.11406 8.81883V8.81883ZM1.94401 6.56941C2.17268 7.04436 3.60536 7.12216 4.10269 7.48572C4.89159 8.06237 4.77835 8.82092 4.77835 8.82092H4.59229C4.226 7.67528 3.19799 8.58236 2.37457 8.27382C1.85761 8.0862 1.48228 7.27293 1.94401 6.56941V6.56941ZM4.55427 10.3041L4.63132 9.68057L4.76996 9.69107L4.7083 10.3775C4.64613 10.6798 4.20433 10.6394 4.14858 10.3513L4.22045 9.63865L4.38477 9.66493L4.3129 10.2622C4.32202 10.4599 4.51633 10.448 4.55427 10.3041ZM3.81652 10.4744L3.65847 10.4355C3.67701 10.3022 3.83191 10.031 3.52575 10.031L3.44053 10.3854L3.26614 10.3521L3.4514 9.50128C3.90422 9.55161 3.94384 9.6802 3.95282 9.81823C3.93494 9.9253 3.90699 10.0001 3.81659 10.0184C3.92239 10.1164 3.81783 10.3217 3.81652 10.4744V10.4744ZM2.81273 9.52146C2.76917 9.58043 2.68198 9.78644 2.66936 9.95061C2.65593 10.1246 2.81974 10.088 2.86052 10.0677C2.89343 10.0514 2.91788 9.9116 2.91788 9.9116L2.80317 9.87259L2.84141 9.75562L3.09956 9.8434L2.9753 10.2824L2.87016 10.253L2.87971 10.1848C2.751 10.2446 2.5154 10.1997 2.48774 10.0482C2.46009 9.92649 2.54385 9.55742 2.67891 9.38498C2.81018 9.21731 3.12999 9.38119 3.13779 9.48252C3.14553 9.58348 3.10649 9.6971 3.10649 9.6971L2.9861 9.67394C2.9861 9.67394 2.99347 9.63746 3.00397 9.57998C3.01507 9.51908 2.85943 9.4581 2.81273 9.52146V9.52146ZM5.16025 10.2359L5.12946 10.6133L5.00111 10.608L5.0473 9.71199C5.36784 9.71876 5.55156 9.76403 5.54543 9.99499C5.52632 10.3105 5.2759 10.2396 5.16025 10.2359ZM5.47976 8.82084H5.26503C5.24598 8.04488 5.39221 6.62555 4.99265 5.58103C4.68991 4.7892 3.92378 4.43301 3.75399 3.79337C3.48518 2.78094 3.94268 1.68549 5.47976 1.60113C6.81233 1.74074 7.22174 2.79047 6.99445 3.76783C6.60365 4.74505 6.21278 4.60463 5.72617 5.57805C5.32873 6.62153 5.48006 7.98859 5.47976 8.82084V8.82084ZM7.86128 10.2569L7.71236 10.3093L7.6661 9.40806L7.84071 9.36093L8.27208 10.105L8.15395 10.1836L8.01013 9.97407L7.84582 10.0369L7.86128 10.2569V10.2569ZM6.1239 8.82084H5.95214C6.0937 6.82799 8.54789 7.26094 8.77218 6.56941C9.16007 7.25499 9.02063 7.83305 8.6156 8.12938C7.60911 8.86604 6.644 7.58423 6.1239 8.82084ZM7.03459 9.82732L7.11164 10.2413C7.15957 10.3367 7.19212 10.319 7.26567 10.3094C7.35096 10.2464 7.33316 10.1851 7.31703 10.105L7.46596 10.0841C7.50477 10.384 7.36505 10.4146 7.26056 10.4352C7.03648 10.4515 6.99256 10.407 6.93192 10.1103C6.89661 9.85636 6.83561 9.58817 7.04487 9.53918C7.38839 9.48565 7.36811 9.64341 7.39919 9.75398L7.25027 9.78026C7.22648 9.68526 7.19226 9.64758 7.11674 9.65458C7.04794 9.68682 7.0197 9.73901 7.03459 9.82732V9.82732ZM6.72134 10.2569C6.7285 10.3874 6.68508 10.4741 6.60321 10.5032L6.254 10.5766L6.11537 9.71199C6.18702 9.70007 6.53835 9.56874 6.62372 9.8064C6.66582 9.95151 6.62218 10.0036 6.57235 10.0683C6.66684 10.0993 6.69873 10.1743 6.72134 10.2569ZM5.8246 5.91823C6.60256 3.68311 8.38269 4.07809 8.77751 5.08337C9.3184 7.10057 7.57672 6.54737 6.46108 7.37456C6.03941 7.74877 5.81752 8.17807 5.81424 8.82888H5.62307C5.61161 7.51804 5.59082 6.58981 5.8246 5.91823Z" fill="#005FAF"/>
</g>
<defs>
<clipPath id="clip0_667_13518">
<rect width="33.75" height="10.8" fill="white" transform="translate(0.125 0.600098)"/>
</clipPath>
</defs>
</svg>
