<svg width="34" height="10" viewBox="0 0 34 10" fill="none" xmlns="http://www.w3.org/2000/svg">
<path fill-rule="evenodd" clip-rule="evenodd" d="M11.7793 0.274902C12.1745 0.535198 12.5766 0.929913 12.5766 1.31137V8.03275C12.5766 8.40926 12.2075 8.94188 11.8714 9.15418C13.057 9.15418 14.2426 9.15418 15.4283 9.15418C17.7297 9.06281 19.1256 8.26349 19.2924 6.58775C19.4095 5.41237 18.7639 4.49819 17.1779 3.98277C17.9692 3.69314 18.3946 3.06241 18.4335 2.19239C18.5002 0.695916 16.6898 0.274902 15.551 0.274902H11.7793V0.274902ZM13.9871 3.87386V1.07141H15.0786C16.3171 1.07141 16.9004 1.65595 16.9002 2.53698C16.9001 3.41801 16.0627 3.87386 15.0177 3.87386H13.9871V3.87386ZM15.1507 8.29867H13.9871V4.67026H15.3057C17.27 4.67026 17.8642 5.80653 17.7588 6.73521C17.6535 7.664 16.8238 8.29867 15.1507 8.29867ZM22.4245 0.274902H20.4916C20.9214 0.735028 21.109 0.976667 21.109 1.68978V7.81517C21.109 8.52075 20.7838 8.95368 20.3175 9.26006H22.8894C22.5074 9.03584 22.0964 8.5956 22.0964 7.79887V2.38761C23.3956 4.05728 24.6949 5.72684 25.9942 7.3964C26.7308 8.32351 27.5849 9.10934 28.5807 9.7249V1.65753C28.5807 0.849666 28.9193 0.541492 29.3724 0.274902H26.8648C27.3194 0.599261 27.5603 0.965653 27.5603 1.62538V7.02787L22.4245 0.274902V0.274902ZM30.7955 9.26006C31.3158 8.92794 31.5803 8.5384 31.5803 8.03264V1.61673C31.5803 0.858096 31.3527 0.686588 30.9064 0.274902H33.8748C33.3625 0.552282 33.003 1.11884 33.003 1.61673V8.015C33.003 8.50592 33.305 8.95559 33.7146 9.26006H30.7955V9.26006Z" fill="#007697"/>
<path fill-rule="evenodd" clip-rule="evenodd" d="M0.125 0.274902H2.99043C2.84077 0.521936 2.72744 1.07737 3.01719 2.32501C3.27469 3.43397 4.01949 4.5908 4.79643 5.50521L3.82018 6.27632L0.125 1.80993V0.274902V0.274902ZM4.30947 0.274902H9.35383V1.45084C8.96373 1.23146 8.2521 1.01949 7.20738 1.42151C5.52161 2.07022 5.3772 3.96984 5.3772 3.96984C4.44465 2.88618 3.83128 1.10951 4.30947 0.274902V0.274902ZM9.35383 3.01059V6.51054C8.20759 6.92897 6.59986 5.8408 6.19597 4.54899C5.6104 2.67646 6.99054 2.00065 7.97789 2.18599C8.71581 2.32456 9.14423 2.7476 9.35383 3.01059V3.01059ZM9.35383 7.08508V9.15317H6.26221L6.88201 8.66371C6.47765 8.71114 5.68307 8.52817 5.29624 8.06051L4.20794 6.7451L5.20289 5.95938C5.81427 6.60764 6.39657 7.07339 6.72568 7.21309C7.43065 7.51227 8.22464 7.65669 9.35383 7.08508V7.08508ZM4.53578 9.15317H1.1585L3.26277 7.49137C3.43498 7.69951 3.60123 7.90069 3.75919 8.09164C4.06903 8.46624 4.32933 8.83623 4.53578 9.15317ZM0.17699 9.15317H0.125V3.69876C0.928691 4.67015 1.9553 5.91105 2.875 7.0227L0.17699 9.15317V9.15317Z" fill="#EC6722"/>
</svg>
