<svg width="34" height="14" viewBox="0 0 34 14" fill="none" xmlns="http://www.w3.org/2000/svg">
<g clip-path="url(#clip0_667_21152)">
<path d="M10.9402 0.925192H2.07269C0.997464 0.925192 0.125 1.77507 0.125 2.8248V11.1753C0.125 12.2154 0.980208 13.06 2.04351 13.075L10.9339 13.0752C12.0091 13.0752 12.8836 12.2251 12.8836 11.1753L12.8879 2.8248C12.8879 1.77507 12.0152 0.925192 10.9402 0.925192ZM3.1266 12.1017L2.64266 12.1073C2.0567 12.1073 1.58367 11.6484 1.58367 11.0846L1.58012 11.0032V3.29186L1.58367 2.87621C1.60728 2.33071 2.04249 1.88996 2.61348 1.88996H3.59633C4.48884 1.88996 5.21057 2.62735 5.21057 3.49582C5.21057 3.92715 5.03293 4.31649 4.74566 4.60106L2.23764 7.02059L4.58934 9.29915C4.89132 9.59701 5.07404 9.98779 5.07404 10.4148C5.07404 11.3462 4.20386 12.1017 3.1266 12.1017V12.1017ZM10.3565 12.0947L5.97163 12.0935C5.97163 12.0935 6.47866 11.0503 6.47866 10.4056C6.47866 9.61945 6.2023 8.91585 5.76962 8.45145L4.2706 6.99693L5.79932 5.49415C6.25686 5.08526 6.55885 4.36186 6.55885 3.53902C6.55885 2.88707 6.36954 2.30947 6.06298 1.88996H7.12603C8.01778 1.88996 8.74027 2.62735 8.74027 3.49582C8.74027 3.92715 8.56339 4.31649 8.27688 4.60106L5.8153 6.99597L10.9262 11.9535C10.7633 12.0506 10.5598 12.0947 10.3565 12.0947V12.0947ZM11.4262 10.5463L7.76299 6.99525L9.50742 5.30949C9.86295 4.88588 10.0893 4.24987 10.0893 3.53902C10.0893 2.88321 9.89645 2.2904 9.58862 1.87113L10.3685 1.8943C10.9534 1.8943 11.4292 2.35171 11.4292 2.91725L11.4262 10.5463Z" fill="#00529C"/>
<path d="M20.748 6.42968C20.8193 6.36185 20.9035 6.27448 21.0007 6.16755C21.0977 6.06062 21.1895 5.93438 21.2763 5.78859C21.3631 5.6428 21.4372 5.48036 21.4984 5.30054C21.5598 5.12095 21.5905 4.92906 21.5905 4.7251C21.5905 4.32708 21.5189 3.95561 21.376 3.61068C21.2329 3.266 21.0134 2.96477 20.7173 2.70722C20.4211 2.45016 20.0511 2.24837 19.6068 2.10258C19.1627 1.95704 18.6442 1.88414 18.0522 1.88414H18.0359H16.3336H15.8905H14.1461V3.74127V10.1705V12.0824H18.4351C19.0579 12.0824 19.6014 12.0023 20.0663 11.842C20.5307 11.6817 20.9165 11.4609 21.2228 11.1792C21.5291 10.8975 21.7562 10.5697 21.9044 10.1958C22.0523 9.82194 22.1264 9.42126 22.1264 8.99379C22.1264 8.42077 21.9887 7.91099 21.7131 7.46396C21.4372 7.01742 21.1154 6.6725 20.748 6.42968ZM18.8515 3.75285C18.9959 3.80523 19.1165 3.8733 19.2106 3.95898C19.4545 4.18153 19.5766 4.44752 19.5766 4.75696C19.5766 5.03768 19.5256 5.26964 19.424 5.45333C19.3223 5.63725 19.2205 5.77749 19.119 5.87404H16.1375V3.63241H17.9907C18.3382 3.63241 18.6242 3.6732 18.8515 3.75285V3.75285ZM18.5422 7.63896C19.082 7.63896 19.4819 7.77196 19.7423 8.03747C19.9872 8.29887 20.1105 8.60735 20.1105 8.96434C20.1105 9.33219 19.9707 9.64622 19.691 9.90738C19.4111 10.1685 18.9513 10.2994 18.3105 10.2994H18.0712H16.1375V7.63896H18.5422Z" fill="#00529C"/>
<path d="M29.398 7.68989C29.7195 7.4811 29.9878 7.23828 30.2022 6.96143C30.4166 6.68457 30.5747 6.37875 30.677 6.04372C30.779 5.70846 30.8303 5.36619 30.8303 5.01644C30.8303 4.56 30.7509 4.14001 30.5928 3.75623C30.4342 3.37269 30.1969 3.04249 29.8804 2.76564C29.5637 2.48878 29.1681 2.27275 28.6933 2.11731C28.2185 1.9621 27.6696 1.88414 27.0468 1.88414H26.9907H22.8652H22.8266V12.0824H24.8565V8.29453H25.9883L28.7877 12.0824H31.167L28.2723 8.16346C28.7009 8.05678 29.0762 7.89892 29.398 7.68989ZM27.0621 3.63241C27.1897 3.63241 27.3102 3.64037 27.4249 3.65413C27.7868 3.70603 28.0825 3.82888 28.3103 4.02415C28.6205 4.29039 28.7755 4.61673 28.7755 5.00341C28.7755 5.19723 28.7423 5.38574 28.6763 5.56943C28.6101 5.75335 28.506 5.91531 28.3636 6.05531C28.221 6.19579 28.0381 6.30923 27.8145 6.39637C27.5907 6.48351 27.3212 6.52695 27.006 6.52695H24.8565V3.63241H27.0621Z" fill="#00529C"/>
<path d="M31.8835 1.88414V1.88704C31.8629 1.88656 31.8429 1.88414 31.8223 1.88414H31.8051V1.88486V5.62301V8.30153V12.0824H33.8748V1.88414H31.8835Z" fill="#00529C"/>
</g>
<defs>
<clipPath id="clip0_667_21152">
<rect width="33.75" height="12.15" fill="white" transform="translate(0.125 0.925049)"/>
</clipPath>
</defs>
</svg>
