<svg width="24" height="24" viewBox="0 0 24 24" fill="none" xmlns="http://www.w3.org/2000/svg">
<path d="M22.5 16.8106V18.75C22.4993 19.3465 22.2621 19.9185 21.8403 20.3403C21.4184 20.7621 20.8465 20.9994 20.25 21H8.57129L16.0452 11.5425C16.1112 11.4599 16.1938 11.3921 16.2877 11.3434C16.3816 11.2948 16.4847 11.2664 16.5903 11.2601C16.6959 11.2538 16.8016 11.2698 16.9006 11.307C16.9996 11.3442 17.0897 11.4017 17.165 11.4759L22.5 16.8106Z" fill="#D6D6D6"/>
<path d="M7.44243 14.5031L9.87468 16.9353L6.66401 21.0001H3.74996C3.41444 20.9989 3.08348 20.9222 2.78159 20.7758C2.47971 20.6293 2.21463 20.4169 2.00598 20.1541L6.31196 14.5837C6.37674 14.4981 6.45906 14.4274 6.55339 14.3762C6.64772 14.3251 6.7519 14.2947 6.85893 14.2871C6.96597 14.2794 7.0734 14.2948 7.17403 14.332C7.27466 14.3693 7.36617 14.4276 7.44243 14.5031Z" fill="#D6D6D6"/>
<path d="M5.07 13.74C5.26053 13.4737 5.50651 13.2518 5.79101 13.0896C6.07551 12.9274 6.39177 12.8288 6.71802 12.8005C7.04428 12.7722 7.37279 12.815 7.68094 12.9259C7.98909 13.0367 8.26956 13.213 8.50305 13.4426L10.8107 15.75L14.866 10.616C15.0637 10.3676 15.3114 10.1637 15.5931 10.0174C15.8748 9.87104 16.1842 9.78564 16.501 9.76672C16.8179 9.74779 17.1352 9.79575 17.4323 9.90748C17.7294 10.0192 17.9997 10.1922 18.2256 10.4152L22.5 14.6896V5.25C22.4993 4.65346 22.2621 4.08155 21.8403 3.65973C21.4185 3.23792 20.8465 3.00066 20.25 3H3.75C3.15346 3.00066 2.58155 3.23792 2.15973 3.65973C1.73792 4.08155 1.50066 4.65346 1.5 5.25V18.3638L5.07 13.74ZM9 6C9.44501 6 9.88002 6.13196 10.25 6.37919C10.62 6.62643 10.9084 6.97783 11.0787 7.38896C11.249 7.8001 11.2936 8.2525 11.2068 8.68895C11.12 9.12541 10.9057 9.52632 10.591 9.84099C10.2763 10.1557 9.87541 10.37 9.43895 10.4568C9.0025 10.5436 8.5501 10.499 8.13896 10.3287C7.72783 10.1584 7.37643 9.87004 7.12919 9.50003C6.88196 9.13002 6.75 8.69501 6.75 8.25C6.75066 7.65346 6.98792 7.08155 7.40973 6.65973C7.83155 6.23792 8.40346 6.00066 9 6Z" fill="#D6D6D6"/>
</svg>
