<svg width="24" height="24" viewBox="0 0 24 24" fill="none" xmlns="http://www.w3.org/2000/svg">
<path d="M20.9688 5.77051H3.03125C2.19125 5.77051 1.5 6.4661 1.5 7.31138V10.3931C1.5 11.2384 2.19125 11.934 3.03125 11.934H3.25H3.90625H4.5625H11.3438H12.6562H19.4375H20.0938H20.75H20.9688C21.8088 11.934 22.5 11.2384 22.5 10.3931V7.31138C22.5 6.4661 21.8088 5.77051 20.9688 5.77051Z" fill="#D6D6D6"/>
<path d="M3.90625 13.2546H3.25V20.0785C3.25 21.4169 4.32625 22.4999 5.65625 22.4999H11.3438V21.8395V21.1792V13.2546H4.5625H3.90625Z" fill="#D6D6D6"/>
<path d="M19.4375 13.2546H12.6562V21.1792V21.8395V22.4999H18.3438C19.6738 22.4999 20.75 21.4169 20.75 20.0785V13.2546H20.0938H19.4375Z" fill="#D6D6D6"/>
<path d="M16.1335 2.16137C15.2568 1.27998 13.7299 1.27998 12.8549 2.16137C12.5355 2.48275 12.2441 3.15017 12 3.85985C11.7559 3.15017 11.4645 2.48275 11.1451 2.16137C10.2701 1.2791 8.74325 1.27998 7.8665 2.16137C7.42813 2.60162 7.1875 3.18715 7.1875 3.81055C7.1875 4.43394 7.42813 5.02036 7.8665 5.46061C8.5945 6.19318 11.1058 6.79721 11.8583 6.9645C11.9055 6.97595 11.9528 6.98123 12 6.98123C12.0473 6.98123 12.0945 6.97595 12.1418 6.96538C12.8934 6.79809 15.4046 6.19318 16.1335 5.46149C16.5719 5.02124 16.8125 4.43482 16.8125 3.81143C16.8125 3.18803 16.5719 2.60162 16.1335 2.16137ZM8.79488 4.52727C8.605 4.33621 8.5 4.08174 8.5 3.81055C8.5 3.53935 8.60413 3.28665 8.79488 3.0947C8.98563 2.90275 9.23763 2.79885 9.50625 2.79885C9.77488 2.79885 10.0278 2.90451 10.2168 3.0947C10.4486 3.32803 10.8074 4.34061 11.0996 5.41482C10.033 5.12073 9.02675 4.76061 8.79488 4.52727ZM15.2051 4.52727C14.9733 4.75973 13.967 5.12073 12.8995 5.41482C13.1918 4.34061 13.5505 3.32803 13.7824 3.0947C13.9723 2.90363 14.2251 2.79885 14.4929 2.79885C14.7624 2.79885 15.0144 2.90451 15.2043 3.09558C15.3941 3.28665 15.5 3.54023 15.5 3.81055C15.5 4.08086 15.395 4.33621 15.2051 4.52727Z" fill="#D6D6D6"/>
</svg>
