<svg width="24" height="24" viewBox="0 0 24 24" fill="none" xmlns="http://www.w3.org/2000/svg">
<path d="M20.741 6.5247C20.741 4.57809 19.1781 3 17.25 3C15.322 3 13.759 4.57809 13.759 6.5247C13.759 8.4713 15.322 10.0494 17.25 10.0494C19.1781 10.0494 20.741 8.4713 20.741 6.5247Z" fill="#D6D6D6"/>
<path d="M17.25 10.6643C16.8778 10.6643 16.5148 10.705 16.1645 10.7815C16.264 10.8724 16.36 10.9691 16.4515 11.0723C17.1125 11.8187 17.4767 12.8033 17.4767 13.8452C17.4767 15.1061 16.8863 16.0284 16.372 16.6909C16.3388 16.7337 12.9047 20.2037 12.9047 20.2037C12.6526 20.4582 12.3265 20.5859 12 20.5873C11.9984 20.5873 11.9966 20.5874 11.995 20.5874C11.6659 20.5874 11.3367 20.4587 11.0831 20.2016C11.0831 20.2016 7.53138 16.5985 7.50478 16.566C6.8716 15.8255 6.52329 14.8613 6.52329 13.8452C6.52329 12.8033 6.88747 11.8187 7.54852 11.0723C7.64001 10.9691 7.73598 10.8724 7.83547 10.7815C7.48524 10.705 7.12218 10.6643 6.75 10.6643C3.85055 10.6643 1.5 13.1107 1.5 16.1283V20.5732C1.5 20.8089 1.68361 21.0001 1.91016 21.0001H22.0898C22.3164 21.0001 22.5 20.8089 22.5 20.5732V16.1283C22.5 13.1107 20.1495 10.6643 17.25 10.6643Z" fill="#D6D6D6"/>
<path d="M10.241 6.5247C10.241 4.57809 8.67806 3 6.75001 3C4.82195 3 3.25903 4.57809 3.25903 6.5247C3.25903 8.4713 4.82195 10.0494 6.75001 10.0494C8.67806 10.0494 10.241 8.4713 10.241 6.5247Z" fill="#D6D6D6"/>
<path d="M7.83032 13.8452C7.83032 14.5632 8.08731 15.2127 8.50195 15.6856L8.50163 15.6859L11.7093 18.9377C11.8684 19.0987 12.1217 19.0991 12.2812 18.9383L15.3552 15.836C15.7987 15.2647 16.1696 14.6424 16.1696 13.8452C16.1696 12.7137 15.592 11.2278 13.851 11.2278C13.2125 11.2278 12.6343 11.5194 12.2148 11.9908C12.1376 12.0777 12.0658 12.1709 12 12.2693C11.9327 12.1687 11.859 12.0739 11.7798 11.9853C11.361 11.5171 10.7849 11.2278 10.1488 11.2278C8.62708 11.2278 7.83032 12.7137 7.83032 13.8452Z" fill="#D6D6D6"/>
</svg>
