<svg width="20" height="20" viewBox="0 0 20 20" fill="none" xmlns="http://www.w3.org/2000/svg">
<path d="M3.81227 3.81227C4.04668 3.57793 4.36457 3.44629 4.69602 3.44629C5.02748 3.44629 5.34536 3.57793 5.57977 3.81227L9.99977 8.23227L14.4198 3.81227C14.6555 3.58457 14.9713 3.45858 15.299 3.46143C15.6268 3.46428 15.9403 3.59574 16.172 3.8275C16.4038 4.05926 16.5353 4.37277 16.5381 4.70052C16.541 5.02827 16.415 5.34402 16.1873 5.57977L11.7673 9.99977L16.1873 14.4198C16.415 14.6555 16.541 14.9713 16.5381 15.299C16.5353 15.6268 16.4038 15.9403 16.172 16.172C15.9403 16.4038 15.6268 16.5353 15.299 16.5381C14.9713 16.541 14.6555 16.415 14.4198 16.1873L9.99977 11.7673L5.57977 16.1873C5.34402 16.415 5.02827 16.541 4.70052 16.5381C4.37277 16.5353 4.05926 16.4038 3.8275 16.172C3.59574 15.9403 3.46428 15.6268 3.46143 15.299C3.45858 14.9713 3.58457 14.6555 3.81227 14.4198L8.23227 9.99977L3.81227 5.57977C3.57793 5.34536 3.44629 5.02748 3.44629 4.69602C3.44629 4.36457 3.57793 4.04668 3.81227 3.81227Z" fill="#B3B3B3"/>
</svg>
