<svg width="17" height="16" viewBox="0 0 17 16" fill="none" xmlns="http://www.w3.org/2000/svg">
<path d="M13.1667 2.66671H12.5V2.00004C12.5 1.63337 12.2 1.33337 11.8333 1.33337C11.4667 1.33337 11.1667 1.63337 11.1667 2.00004V2.66671H5.83333V2.00004C5.83333 1.63337 5.53333 1.33337 5.16667 1.33337C4.8 1.33337 4.5 1.63337 4.5 2.00004V2.66671H3.83333C3.09333 2.66671 2.50667 3.26671 2.50667 4.00004L2.5 13.3334C2.5 14.0667 3.09333 14.6667 3.83333 14.6667H13.1667C13.9 14.6667 14.5 14.0667 14.5 13.3334V4.00004C14.5 3.26671 13.9 2.66671 13.1667 2.66671ZM13.1667 12.6667C13.1667 13.0334 12.8667 13.3334 12.5 13.3334H4.5C4.13333 13.3334 3.83333 13.0334 3.83333 12.6667V6.00004H13.1667V12.6667ZM5.16667 7.33337H6.5V8.66671H5.16667V7.33337ZM7.83333 7.33337H9.16667V8.66671H7.83333V7.33337ZM10.5 7.33337H11.8333V8.66671H10.5V7.33337Z" fill="#383838"/>
</svg>
