<svg width="17" height="16" viewBox="0 0 17 16" fill="none" xmlns="http://www.w3.org/2000/svg">
<path d="M8.49334 1.33337C4.81334 1.33337 1.83334 4.32004 1.83334 8.00004C1.83334 11.68 4.81334 14.6667 8.49334 14.6667C12.18 14.6667 15.1667 11.68 15.1667 8.00004C15.1667 4.32004 12.18 1.33337 8.49334 1.33337ZM8.5 13.3334C5.55334 13.3334 3.16667 10.9467 3.16667 8.00004C3.16667 5.05337 5.55334 2.66671 8.5 2.66671C11.4467 2.66671 13.8333 5.05337 13.8333 8.00004C13.8333 10.9467 11.4467 13.3334 8.5 13.3334ZM8.35334 4.66671H8.31334C8.04667 4.66671 7.83334 4.88004 7.83334 5.14671V8.29337C7.83334 8.52671 7.95334 8.74671 8.16 8.86671L10.9267 10.5267C11.1533 10.66 11.4467 10.5934 11.58 10.3667C11.72 10.14 11.6467 9.84004 11.4133 9.70671L8.83334 8.17337V5.14671C8.83334 4.88004 8.62 4.66671 8.35334 4.66671Z" fill="#383838"/>
</svg>
