<svg width="180" height="176" viewBox="0 0 180 176" fill="none" xmlns="http://www.w3.org/2000/svg">
<path d="M89.7925 175.742C139.384 175.742 179.585 153.895 179.585 126.946C179.585 99.9955 139.384 78.1486 89.7925 78.1486C40.2015 78.1486 0 99.9955 0 126.946C0 153.895 40.2015 175.742 89.7925 175.742Z" fill="#F5F5F5"/>
<path d="M61.7426 151.52C75.8615 151.52 87.3073 145.279 87.3073 137.581C87.3073 129.883 75.8615 123.643 61.7426 123.643C47.6236 123.643 36.178 129.883 36.178 137.581C36.178 145.279 47.6236 151.52 61.7426 151.52Z" fill="#E0E0E0"/>
<path d="M96.6219 168.415L151.044 138.749C151.145 138.715 151.232 138.654 151.294 138.571C151.356 138.489 151.389 138.39 151.389 138.29C151.389 138.188 151.356 138.09 151.294 138.007C151.232 137.925 151.145 137.863 151.044 137.829L122.325 122.181C122.064 122.055 121.775 121.989 121.481 121.989C121.188 121.989 120.899 122.055 120.638 122.181L66.2295 151.855C66.1266 151.886 66.0369 151.947 65.9733 152.03C65.9098 152.113 65.8755 152.213 65.8755 152.315C65.8755 152.417 65.9098 152.516 65.9733 152.599C66.0369 152.681 66.1266 152.743 66.2295 152.774L94.9492 168.427C95.2101 168.547 95.4974 168.608 95.7874 168.605C96.0774 168.604 96.3628 168.538 96.6219 168.415Z" fill="#E0E0E0"/>
<path d="M132.716 129.313C132.222 126.105 133.644 119.124 136.525 114.474C139.405 109.824 143.218 106.085 147.347 106.812C151.193 107.489 151.239 112.265 147.26 115.889C143.281 119.513 136.246 126.109 135.097 131.565L134.432 136.384L132.716 129.313Z" fill="#D0AD6B"/>
<path opacity="0.15" d="M132.716 129.313C132.222 126.105 133.644 119.124 136.525 114.474C139.405 109.824 143.218 106.085 147.347 106.812C151.193 107.489 151.239 112.265 147.26 115.889C143.281 119.513 136.246 126.109 135.097 131.565L134.432 136.384L132.716 129.313Z" fill="black"/>
<path d="M133.146 133.734C133.199 133.723 133.247 133.695 133.283 133.655C133.318 133.616 133.338 133.566 133.342 133.514C133.92 122.256 141.916 112.064 147.219 109.324C147.248 109.31 147.274 109.289 147.295 109.265C147.315 109.241 147.331 109.213 147.34 109.183C147.349 109.153 147.352 109.122 147.348 109.09C147.345 109.059 147.335 109.029 147.318 109.002C147.304 108.974 147.283 108.949 147.258 108.929C147.233 108.91 147.203 108.895 147.172 108.886C147.14 108.877 147.106 108.874 147.075 108.878C147.042 108.882 147.01 108.892 146.982 108.908C141.57 111.698 133.425 122.06 132.83 133.49C132.828 133.522 132.833 133.553 132.844 133.582C132.855 133.611 132.872 133.638 132.894 133.661C132.916 133.684 132.943 133.702 132.972 133.716C133.002 133.729 133.035 133.737 133.067 133.739L133.146 133.734Z" fill="white"/>
<path d="M133.066 143.2C133.334 141.321 135.202 138.023 138.595 135.048C142.34 131.754 147.426 129.772 148.314 127.488C149.383 124.737 146.744 122.662 142.536 123.755C138.328 124.848 131.655 131.408 131.739 139.871L133.066 143.2Z" fill="#D0AD6B"/>
<path opacity="0.3" d="M133.066 143.2C133.334 141.321 135.202 138.023 138.595 135.048C142.34 131.754 147.426 129.772 148.314 127.488C149.383 124.737 146.744 122.662 142.536 123.755C138.328 124.848 131.655 131.408 131.739 139.871L133.066 143.2Z" fill="black"/>
<path d="M131.947 141.423C131.994 141.411 132.035 141.388 132.068 141.355C132.102 141.323 132.124 141.282 132.134 141.239C134.236 131.368 141.292 127.033 144.742 126.116C144.774 126.108 144.804 126.094 144.829 126.074C144.854 126.055 144.876 126.031 144.893 126.004C144.908 125.977 144.919 125.946 144.923 125.916C144.926 125.885 144.924 125.854 144.914 125.824C144.905 125.794 144.891 125.766 144.87 125.741C144.85 125.717 144.824 125.697 144.795 125.681C144.766 125.667 144.734 125.656 144.702 125.653C144.669 125.649 144.636 125.652 144.604 125.661C140.8 126.674 133.783 131.074 131.644 141.144C131.631 141.205 131.644 141.269 131.681 141.321C131.717 141.373 131.774 141.41 131.839 141.423C131.874 141.429 131.911 141.429 131.947 141.423Z" fill="white"/>
<path d="M48.9812 125.016C48.9812 125.016 49.6472 116.965 46.7503 110.079C43.8533 103.192 38.9376 98.3488 33.7015 96.9777C28.4654 95.6058 23.221 99.446 28.2614 103.66C33.302 107.873 42.7462 112.964 44.9646 125.673L48.9812 125.016Z" fill="#D0AD6B"/>
<path opacity="0.15" d="M48.9812 125.016C48.9812 125.016 49.6472 116.965 46.7503 110.079C43.8533 103.192 38.9376 98.3488 33.7015 96.9777C28.4654 95.6058 23.221 99.446 28.2614 103.66C33.302 107.873 42.7462 112.964 44.9646 125.673L48.9812 125.016Z" fill="black"/>
<path d="M47.8408 122.685H47.8991C47.9746 122.67 48.0411 122.628 48.084 122.568C48.1269 122.508 48.1427 122.433 48.1281 122.362C45.1895 108.282 35.6413 100.876 30.9754 98.9266C30.9045 98.8991 30.825 98.8983 30.7535 98.924C30.6821 98.9506 30.6243 99.0022 30.5925 99.0683C30.5765 99.1009 30.5678 99.1361 30.5665 99.1713C30.5654 99.2073 30.5717 99.2434 30.5853 99.276C30.5988 99.3095 30.6194 99.3404 30.6456 99.3662C30.6719 99.3919 30.7034 99.4117 30.7381 99.4263C35.2916 101.332 44.6525 108.605 47.5662 122.464C47.5792 122.525 47.6134 122.579 47.6632 122.62C47.713 122.659 47.7755 122.682 47.8408 122.685Z" fill="white"/>
<path d="M26.5049 115.527C26.6797 116.466 27.5414 117.139 28.3613 117.697C29.1813 118.255 30.0678 118.876 30.3508 119.776C30.9127 121.628 28.6859 123.518 29.3353 125.342C29.5014 125.715 29.7461 126.053 30.0545 126.334C30.3628 126.615 30.7285 126.834 31.1292 126.978C31.787 127.23 32.458 127.45 33.1396 127.638C33.4676 127.709 33.7997 127.761 34.1344 127.795C35.1125 127.886 36.1489 128.086 36.8939 128.746C38.0636 129.788 38.0511 131.498 38.5588 132.952C38.8748 133.811 39.3841 134.594 40.0517 135.25C40.7192 135.905 41.5291 136.415 42.4256 136.745C43.9157 137.3 46.3132 137.532 46.8834 136.966C47.2997 136.548 46.8001 134.859 46.9333 134.285C47.2667 132.817 47.4534 131.323 47.4911 129.824C47.4768 129.14 47.5508 128.458 47.7117 127.791C47.9157 127.048 48.1279 126.301 48.3027 125.558C48.5108 124.749 48.8771 124.167 48.7814 123.282C48.6449 122.439 48.3756 121.621 47.9822 120.854C47.6381 120.088 47.2871 119.323 46.9292 118.558C46.5408 117.644 46.0347 116.78 45.4225 115.983C44.8586 115.312 44.1553 114.755 43.3557 114.35C42.5563 113.945 41.6774 113.698 40.7732 113.625C39.2789 113.515 37.6765 113.947 36.1947 113.534C34.7129 113.122 33.4601 112.442 31.9658 112.19C30.405 111.93 28.6777 112.19 27.4706 113.216C27.1216 113.497 26.8509 113.855 26.6826 114.257C26.5142 114.661 26.4532 115.096 26.5049 115.527Z" fill="#D0AD6B"/>
<path opacity="0.3" d="M26.5049 115.527C26.6797 116.466 27.5414 117.139 28.3613 117.697C29.1813 118.255 30.0678 118.876 30.3508 119.776C30.9127 121.628 28.6859 123.518 29.3353 125.342C29.5014 125.715 29.7461 126.053 30.0545 126.334C30.3628 126.615 30.7285 126.834 31.1292 126.978C31.787 127.23 32.458 127.45 33.1396 127.638C33.4676 127.709 33.7997 127.761 34.1344 127.795C35.1125 127.886 36.1489 128.086 36.8939 128.746C38.0636 129.788 38.0511 131.498 38.5588 132.952C38.8748 133.811 39.3841 134.594 40.0517 135.25C40.7192 135.905 41.5291 136.415 42.4256 136.745C43.9157 137.3 46.3132 137.532 46.8834 136.966C47.2997 136.548 46.8001 134.859 46.9333 134.285C47.2667 132.817 47.4534 131.323 47.4911 129.824C47.4768 129.14 47.5508 128.458 47.7117 127.791C47.9157 127.048 48.1279 126.301 48.3027 125.558C48.5108 124.749 48.8771 124.167 48.7814 123.282C48.6449 122.439 48.3756 121.621 47.9822 120.854C47.6381 120.088 47.2871 119.323 46.9292 118.558C46.5408 117.644 46.0347 116.78 45.4225 115.983C44.8586 115.312 44.1553 114.755 43.3557 114.35C42.5563 113.945 41.6774 113.698 40.7732 113.625C39.2789 113.515 37.6765 113.947 36.1947 113.534C34.7129 113.122 33.4601 112.442 31.9658 112.19C30.405 111.93 28.6777 112.19 27.4706 113.216C27.1216 113.497 26.8509 113.855 26.6826 114.257C26.5142 114.661 26.4532 115.096 26.5049 115.527Z" fill="black"/>
<path d="M43.2583 121.852C43.2418 121.819 43.2159 121.79 43.1834 121.77C38.6923 116.573 32.0951 114.403 29.8975 114.093C29.8662 114.084 29.8335 114.082 29.8015 114.087C29.7694 114.092 29.7389 114.103 29.7117 114.12C29.6845 114.136 29.6614 114.159 29.6439 114.185C29.6264 114.21 29.6149 114.239 29.6101 114.27C29.6054 114.3 29.6075 114.33 29.6163 114.36C29.6251 114.39 29.6405 114.416 29.6614 114.44C29.6822 114.464 29.7081 114.482 29.7374 114.496C29.7666 114.509 29.7985 114.516 29.8309 114.517C31.912 114.812 38.0264 116.812 42.4051 121.553C40.7361 121.144 38.9954 121.065 37.2927 121.322C35.5899 121.579 33.9619 122.166 32.5114 123.047C32.487 123.063 32.4664 123.084 32.4508 123.108C32.4352 123.132 32.4249 123.159 32.4207 123.187C32.4164 123.215 32.4181 123.244 32.4259 123.27C32.4336 123.298 32.4471 123.324 32.4656 123.346C32.4866 123.373 32.5148 123.397 32.5475 123.411C32.5802 123.427 32.6165 123.434 32.6529 123.432C32.6998 123.432 32.7451 123.416 32.7819 123.389C34.2729 122.494 35.9528 121.918 37.7042 121.701C39.4557 121.484 41.2362 121.631 42.9212 122.131C45.5463 125.198 47.032 128.994 47.15 132.937C47.1521 132.991 47.1756 133.041 47.2158 133.079C47.256 133.117 47.3098 133.139 47.3665 133.141C47.4265 133.139 47.4832 133.115 47.5245 133.074C47.5658 133.033 47.5882 132.978 47.5871 132.921C47.4729 128.882 45.9513 124.992 43.2583 121.852Z" fill="white"/>
<path d="M48.1704 134.084C49.902 134.87 51.7792 134.756 53.7729 133.895L54.4097 123.451L47.3838 122.724L48.1704 134.084Z" fill="#FFADAD"/>
<path d="M61.7401 127.696C62.6309 129.241 66.635 129.591 67.7754 127.567L68.2624 117.346L60.8994 117.496L61.7401 127.696Z" fill="#FFADAD"/>
<path d="M60.9533 143.513C61.1448 143.674 61.1322 144.81 60.9533 145.125C60.7743 145.44 59.5131 146.528 57.2072 146.76C55.0179 146.981 53.045 146.76 51.7256 146.037C50.4061 145.313 49.7526 144.464 49.5861 143.285C49.4197 142.106 49.5195 140.962 48.8869 140.074C48.3041 139.252 47.3926 138.337 47.1845 137.889C46.7309 136.913 47.0763 135.483 47.0763 135.483L60.9533 143.513Z" fill="#263238"/>
<path d="M54.5386 133.408C54.5892 133.854 54.6969 134.291 54.8591 134.713C55.2273 135.616 55.711 136.475 56.2992 137.268C56.5912 137.681 56.9124 138.075 57.2607 138.447C57.9558 139.171 58.8008 139.756 59.5333 140.448C60.3064 141.099 60.8181 141.981 60.9818 142.947C61.14 144.571 59.2919 145.185 57.8601 145.475C56.3138 145.785 54.7138 145.763 53.1775 145.412C52.3695 145.241 51.6309 144.853 51.0505 144.296C50.4702 143.738 50.0727 143.034 49.906 142.267C49.8102 141.819 49.8186 141.356 49.7478 140.904C49.515 139.873 49.0176 138.912 48.2993 138.105C47.8828 137.637 47.5188 137.13 47.213 136.591C46.7261 135.601 47.0465 134.457 47.2921 133.447C47.5085 132.574 47.675 131.541 47.9997 131.611L48.0454 132.283C48.1579 132.468 48.3742 132.46 48.4617 132.677C48.5358 132.904 48.6305 133.125 48.7447 133.337C48.9187 133.669 49.1961 133.944 49.5397 134.123C49.5397 133.51 49.5397 132.893 49.5397 132.279C49.5177 132.088 49.5631 131.897 49.6687 131.733C49.8158 131.597 50.006 131.512 50.2099 131.489C51.4057 131.177 52.645 131.038 53.8852 131.076C53.9776 131.074 54.0698 131.089 54.1558 131.122C54.2417 131.154 54.3197 131.203 54.3846 131.265C54.4598 131.384 54.4947 131.521 54.4845 131.658C54.4702 132.242 54.4882 132.826 54.5386 133.408Z" fill="#455A64"/>
<path d="M56.5458 137.598C55.8882 137.166 54.4647 137.205 53.6697 137.315C52.8737 137.408 52.115 137.687 51.4637 138.129C51.3693 138.2 51.251 138.237 51.1302 138.233C51.0095 138.229 50.8944 138.183 50.8061 138.106C50.7538 138.061 50.7124 138.007 50.6847 137.946C50.657 137.885 50.6437 137.819 50.6457 137.753C50.6477 137.687 50.6649 137.622 50.6962 137.562C50.7275 137.503 50.7721 137.451 50.8269 137.41C51.5471 136.874 52.4125 136.54 53.3243 136.447C55.2513 136.254 55.8216 136.549 55.8216 136.549C55.8216 136.549 56.7248 137.056 56.5458 137.598Z" fill="#F5F5F5"/>
<path d="M58.0813 139.213C57.2488 138.793 55.6838 138.91 54.9013 139.017C54.1198 139.118 53.3803 139.413 52.7577 139.87C52.6622 139.939 52.5439 139.974 52.4236 139.969C52.3033 139.964 52.1888 139.919 52.1001 139.843C52.048 139.799 52.0066 139.744 51.9789 139.684C51.9513 139.623 51.9379 139.558 51.9399 139.492C51.9419 139.426 51.9591 139.361 51.9903 139.302C52.0216 139.243 52.0662 139.191 52.1209 139.151C52.846 138.589 53.7223 138.23 54.6516 138.113C56.5787 137.92 57.099 138.278 57.099 138.278C57.327 138.353 57.5338 138.477 57.7039 138.639C57.8741 138.801 58.0031 138.998 58.0813 139.213Z" fill="#F5F5F5"/>
<path d="M52.4704 134.725C53.2786 134.565 54.1168 134.603 54.9053 134.835C55.2549 135.004 55.4963 135.507 55.284 135.64C54.591 135.407 53.848 135.337 53.1196 135.436C52.3935 135.525 51.6893 135.732 51.0386 136.05C50.872 136.124 50.6806 136.227 50.5141 136.32C50.4608 136.352 50.4013 136.373 50.3393 136.38C50.2773 136.389 50.2141 136.385 50.1536 136.37C50.0931 136.355 50.0366 136.328 49.9877 136.291C49.9387 136.254 49.8983 136.208 49.8689 136.155C49.8169 136.066 49.8035 135.962 49.8314 135.863C49.8593 135.766 49.9265 135.681 50.0187 135.629C50.7582 135.165 51.5941 134.857 52.4704 134.725Z" fill="#F5F5F5"/>
<path d="M80.0783 134.02C80.2568 134.492 80.2375 135.012 80.0242 135.471C79.8202 135.9 77.5268 137.192 74.3426 137.043C71.9943 136.937 69.7191 136.238 67.7538 135.019C66.5343 134.291 65.2773 134.174 63.7081 134.122C62.1389 134.072 60.3783 133.368 60.0162 132.684C59.654 132 60.0162 130.802 60.0162 130.802L80.0783 134.02Z" fill="#263238"/>
<path d="M67.1677 125.097L68.0002 124.799C68.1431 124.727 68.3085 124.707 68.4664 124.74C68.6703 124.806 68.7536 125.03 68.8118 125.227C68.8929 125.667 69.0184 126.099 69.1864 126.517C69.4287 126.855 69.7366 127.147 70.0937 127.378C70.8916 127.956 71.7509 128.455 72.6577 128.867C73.7025 129.37 74.7388 129.756 75.8003 130.188C76.8616 130.62 78.3475 130.88 79.2091 131.402C80.4578 132.189 80.6743 134.154 79.2757 134.96C78.0728 135.66 74.8846 136.457 71.5006 135.624C69.6567 135.172 67.5797 133.364 65.1698 133.235C63.6381 133.156 61.0408 132.802 60.0336 131.724C59.659 131.245 60.1085 129.692 60.4789 128.352C60.8952 126.894 60.9951 124.614 61.507 124.732C61.5528 125.216 62.0024 125.486 62.2812 125.887C62.5026 126.255 62.6946 126.638 62.8555 127.032C63.0429 127.425 62.9846 127.798 63.3717 128.014C63.5611 128.132 63.7869 128.187 64.0133 128.17C64.2396 128.154 64.4534 128.065 64.6204 127.92C65.0616 127.472 64.7744 126.705 65.0907 126.175C65.3535 125.837 65.7289 125.594 66.1563 125.483L67.1677 125.097Z" fill="#455A64"/>
<path d="M71.1921 128.109C71.0774 127.912 70.9122 127.745 70.7113 127.625C70.5106 127.504 70.2809 127.433 70.0433 127.417C69.3441 127.312 68.1245 127.81 67.3753 128.431C67.304 128.489 67.2485 128.562 67.2139 128.643C67.1792 128.726 67.1665 128.814 67.1768 128.902C67.1871 128.989 67.2201 129.073 67.2728 129.146C67.3256 129.219 67.3965 129.278 67.4793 129.32C67.5834 129.37 67.7016 129.39 67.8178 129.375C67.934 129.361 68.0425 129.312 68.1287 129.237C68.9549 128.498 70.0543 128.094 71.1921 128.109Z" fill="#F5F5F5"/>
<path d="M73.3731 129.205C73.3731 129.029 72.9194 128.537 72.0204 128.58C72.0204 128.58 70.2015 128.667 69.1068 129.681C69.0396 129.737 68.9877 129.808 68.9554 129.887C68.923 129.966 68.9113 130.051 68.921 130.136C68.9309 130.22 68.962 130.301 69.0116 130.371C69.0613 130.442 69.1282 130.5 69.2067 130.541C69.307 130.591 69.4209 130.609 69.5328 130.595C69.6446 130.579 69.7489 130.532 69.831 130.459C70.2849 130.013 70.8385 129.67 71.4515 129.453C72.0644 129.236 72.721 129.151 73.3731 129.205Z" fill="#F5F5F5"/>
<path d="M75.7833 130.188C75.6055 130.005 75.3877 129.86 75.1449 129.763C74.9022 129.666 74.64 129.619 74.3765 129.626C73.3447 129.707 72.3667 130.095 71.5836 130.735C71.5163 130.79 71.464 130.861 71.4313 130.939C71.3987 131.018 71.3865 131.103 71.3959 131.187C71.4052 131.271 71.436 131.352 71.4853 131.422C71.5346 131.493 71.6012 131.551 71.6793 131.592C71.7799 131.642 71.8943 131.661 72.0068 131.647C72.1193 131.633 72.2245 131.586 72.3078 131.513C72.7372 131.051 73.2752 130.691 73.8788 130.461C74.4823 130.231 75.1347 130.137 75.7833 130.188Z" fill="#F5F5F5"/>
<path d="M44.6536 56.7062C43.4049 68.0466 46.4601 96.1595 46.4601 96.1595C46.227 97.5667 45.5485 99.5602 45.5693 104.414C45.5984 111.824 47.4007 127.688 47.4007 127.688C47.4007 127.688 50.9012 128.75 54.4266 127.633C54.4266 127.633 56.6576 107.291 57.6315 100.511C58.31 95.7938 58.5931 90.7551 58.5931 90.7551L59.0593 95.3422C58.6371 98.3874 58.5548 101.466 58.8136 104.529C59.1133 107.916 61.1029 121.796 61.1029 121.796C63.5002 122.461 66.0394 122.523 68.4701 121.977C68.4701 121.977 70.2058 98.117 70.5054 95.0194C70.8426 91.4822 70.9716 57.284 70.9716 57.284L44.6536 56.7062Z" fill="#455A64"/>
<path d="M58.5769 90.7773L60.1461 70.6793C61.6348 70.4314 63.0546 69.9001 64.319 69.1175C65.5834 68.3349 66.6659 67.3177 67.5008 66.1274C67.5008 66.1274 66.7765 69.7438 61.6236 71.9253L59.3303 90.585L59.0431 95.3568L58.5769 90.7773Z" fill="#37474F"/>
<path d="M81.5854 65.0352V64.9763C81.644 64.0675 81.5852 63.1554 81.4106 62.26C81.2524 61.6036 80.4033 61.014 79.9247 60.5345C77.5854 58.1957 74.0725 55.4244 71.4378 52.9008C68.8947 50.4834 69.2235 47.1068 68.9737 42.8851C68.5243 35.3695 68.1995 31.9418 68.1995 31.9418L67.1299 24.548C71.3504 24.941 73.3192 27.0479 73.7104 28.3687C75.1339 33.1721 77.2151 47.0597 77.2151 47.0597C78.1973 48.4472 78.3888 48.5376 80.6114 51.757C81.7935 53.4708 83.0672 55.1217 84.3575 56.7688C84.6447 57.1382 84.9485 57.4959 85.2191 57.8772C85.4896 58.2585 85.6353 58.6948 85.9183 59.0879C86.4788 59.9379 87.2201 60.6687 88.0952 61.2341C88.807 61.694 89.6103 62.0439 90.2138 62.6256C90.6581 63.0924 91.0746 63.5818 91.4628 64.0918C91.8873 64.5213 92.3855 64.88 92.9355 65.1531C92.7364 65.4144 92.4601 65.6152 92.1419 65.731C91.8228 65.8468 91.4755 65.8728 91.1419 65.8056C90.4677 65.7074 89.9266 65.0548 89.3481 64.7168C89.6727 65.6995 89.8309 68.2545 89.5353 68.7301C89.09 69.4456 87.6498 70.275 86.4095 70.7467C85.586 71.0396 84.6732 71.0127 83.8705 70.672C82.8216 70.2435 82.4428 69.1468 82.1432 68.1013C81.8019 67.1099 81.614 66.0773 81.5854 65.0352Z" fill="#FFADAD"/>
<path d="M67.1299 24.2729C69.7979 24.8232 71.4003 25.0591 73.1902 26.9026C74.9799 28.7462 75.6125 35.177 76.0204 37.8499C76.4283 40.5228 76.8529 43.1683 76.8529 43.1683C76.8529 43.1683 73.981 45.9198 67.3796 44.5402L67.1299 24.2729Z" fill="#455A64"/>
<path d="M79.4666 59.8704C79.5822 59.6618 79.7538 59.4857 79.9641 59.3594C80.1745 59.2332 80.4163 59.1613 80.6653 59.151C81.1657 59.1367 81.6603 59.2551 82.0929 59.493C82.1818 59.3899 82.2968 59.3098 82.4274 59.2602C82.5579 59.2105 82.6997 59.1929 82.8393 59.209C82.979 59.2251 83.1121 59.2744 83.2261 59.3522C83.3402 59.43 83.4315 59.5339 83.4915 59.6542C83.603 59.4232 83.8014 59.2395 84.0481 59.1386C84.2948 59.0378 84.5724 59.0268 84.8271 59.108C85.0818 59.1891 85.2956 59.3566 85.4272 59.578C85.5588 59.7995 85.5987 60.0591 85.5393 60.3067C85.6499 60.2965 85.7615 60.3143 85.8625 60.3582C85.9635 60.4021 86.0504 60.4704 86.1142 60.5563C86.1781 60.6422 86.2168 60.7426 86.2262 60.8472C86.2356 60.9519 86.2155 61.057 86.1678 61.1518C86.439 61.1447 86.7052 61.2211 86.9263 61.3696C87.1474 61.5182 87.3112 61.7306 87.393 61.9749C87.4748 62.2192 87.4702 62.482 87.3798 62.7235C87.2895 62.9651 87.1182 63.1722 86.892 63.3137C86.6054 63.4441 86.2867 63.4984 85.9699 63.4707C85.6531 63.443 85.3503 63.3344 85.0939 63.1565C84.5855 62.797 84.1231 62.3828 83.7162 61.9222C83.3053 61.46 82.7479 61.1347 82.1262 60.9945C81.4187 60.8884 80.7152 61.195 80.0119 61.0849C79.4499 60.9985 79.2459 60.3184 79.4666 59.8704Z" fill="#FAFAFA"/>
<path d="M87.7077 63.3413C86.2675 61.0064 83.5454 58.9938 80.9981 60.287C80.8732 60.35 80.0116 60.7626 79.712 60.916C78.3218 61.6196 77.5268 64.0056 79.1209 66.5881C80.507 68.8287 83.1624 70.4285 85.4226 69.3397C85.5946 69.2551 85.7601 69.1592 85.9179 69.0527C86.1836 68.9929 86.4407 68.9031 86.6837 68.7854C88.9439 67.6809 88.9563 65.3617 87.7077 63.3413Z" fill="#D0AD6B"/>
<path d="M80.9981 60.2869C79.6079 60.9905 78.7879 63.4513 80.3862 66.0377C81.7681 68.2743 84.4236 69.8781 86.6837 68.7893C88.9438 67.7004 88.9563 65.3733 87.7076 63.353C86.2758 61.0062 83.5495 58.9936 80.9981 60.2869Z" fill="#D0AD6B"/>
<path opacity="0.5" d="M80.9981 60.2869C79.6079 60.9905 78.7879 63.4513 80.3862 66.0377C81.7681 68.2743 84.4236 69.8781 86.6837 68.7893C88.9438 67.7004 88.9563 65.3733 87.7076 63.353C86.2758 61.0062 83.5495 58.9936 80.9981 60.2869Z" fill="white"/>
<path d="M76.4985 65.7663C76.1025 64.7022 76.1366 63.5376 76.5942 62.4958C76.7654 62.131 77.0317 61.8132 77.3684 61.5721C77.5365 61.4519 77.7286 61.3651 77.9332 61.3172C78.1378 61.2692 78.3506 61.261 78.5587 61.293C78.7671 61.3277 78.9609 61.4168 79.1184 61.5501C79.2757 61.6835 79.3905 61.8559 79.4495 62.0477C79.5944 61.9228 79.7701 61.8343 79.9607 61.7903C80.1513 61.7464 80.3505 61.7484 80.54 61.7962C80.848 61.8709 81.4141 62.1892 81.0977 62.5824C81.2949 62.3499 81.574 62.1921 81.8841 62.1376C82.1942 62.0832 82.5146 62.1358 82.787 62.2859C83.0595 62.436 83.2657 62.6735 83.3682 62.9552C83.4707 63.2369 83.4626 63.544 83.3454 63.8205C83.4634 63.7636 83.5926 63.7303 83.7248 63.7226C83.8571 63.7148 83.9896 63.733 84.1142 63.7756C84.2387 63.8184 84.3526 63.8849 84.4488 63.971C84.5449 64.0571 84.6213 64.161 84.6731 64.2762C84.7249 64.3914 84.7511 64.5153 84.75 64.6405C84.7489 64.7657 84.7205 64.8892 84.6666 65.0036C84.6127 65.1179 84.5346 65.2205 84.4368 65.3051C84.3391 65.3897 84.224 65.4543 84.0987 65.495C84.3538 65.4426 84.6204 65.4803 84.8479 65.6012C84.9621 65.6432 85.0646 65.7093 85.1476 65.7945C85.2306 65.8796 85.2918 65.9816 85.3266 66.0926C85.3597 66.2582 85.3395 66.4293 85.2684 66.5839C85.1978 66.7383 85.1069 66.8835 84.9978 67.0163C85.0697 66.915 85.1679 66.833 85.2831 66.7779C85.3983 66.7228 85.5265 66.6966 85.6555 66.7018C85.7863 66.71 85.9126 66.7506 86.0215 66.8197C86.1304 66.8887 86.218 66.9836 86.2756 67.0949C86.2662 66.958 86.3036 66.8218 86.3823 66.7065C86.4609 66.5911 86.5767 66.5027 86.7126 66.4542C86.8578 66.4076 87.0132 66.3969 87.164 66.423C87.3148 66.4492 87.456 66.5114 87.5742 66.6036C87.6856 66.7003 87.7741 66.8184 87.8336 66.9498C87.8932 67.0813 87.9226 67.2232 87.9197 67.3661C87.9046 67.7119 87.7931 68.0476 87.5965 68.3395C87.3998 68.6315 87.1251 68.8693 86.8 69.0288C86.1462 69.342 85.4268 69.5138 84.6939 69.532C83.0571 69.7014 81.4009 69.5077 79.8574 68.9659C79.0888 68.6889 78.3916 68.2601 77.8125 67.7083C77.2332 67.1565 76.7853 66.4945 76.4985 65.7663Z" fill="#FAFAFA"/>
<path d="M48.9904 23.9232C48.9904 23.9232 48.2162 24.6857 47.0175 27.284C45.3667 30.7026 44.4852 34.4075 44.4285 38.1644C44.3661 44.2101 44.3369 45.7745 44.3369 49.0489V60.8845C48.3327 63.864 65.502 65.9592 71.5706 60.2595C71.5706 60.2595 71.2126 57.6219 70.8006 49.1314C71.6331 44.3397 72.3698 38.8287 72.5695 35.4836C72.9192 29.6582 72.1534 26.0497 68.5779 24.5757C67.1738 24.1024 65.7442 23.6996 64.295 23.3689C64.295 23.3689 61.9975 22.6653 57.8185 22.8422C54.8531 23.0113 51.9034 23.3725 48.9904 23.9232Z" fill="#D0AD6B"/>
<path d="M61.6476 3.32172C61.6476 3.32172 60.0369 2.57487 58.4343 4.00568C57.0359 5.25568 57.1399 8.35315 57.1857 11.5764C57.1678 13.6064 57.4251 15.6302 57.9515 17.5984C58.1339 18.1874 58.5499 18.6874 59.1128 18.9939L59.9203 15.3579L60.4114 12.8107C60.4114 12.8107 62.272 12.7006 63.325 9.21401C64.0201 6.90268 63.8703 5.87281 63.8703 5.87281L61.6476 3.32172Z" fill="#455A64"/>
<path d="M63.1421 7.96004C62.8128 9.29649 62.9105 10.6952 63.4229 11.9792C63.9353 13.2634 64.8393 14.3751 66.0208 15.1739C67.2022 15.9726 68.608 16.4227 70.0602 16.467C71.5124 16.5113 72.9461 16.1479 74.1796 15.4228C75.4131 14.6975 76.3912 13.6433 76.9903 12.3931C77.5894 11.1429 77.7824 9.75315 77.5451 8.39934C77.3077 7.04557 76.6506 5.78868 75.6568 4.78761C74.6631 3.78653 73.3772 3.08625 71.9621 2.77531C71.0224 2.56833 70.0488 2.53828 69.0969 2.68689C68.145 2.83548 67.2333 3.15981 66.4142 3.64132C65.5951 4.12284 64.8845 4.75211 64.3231 5.49314C63.7617 6.23418 63.3603 7.07245 63.1421 7.96004Z" fill="#455A64"/>
<path d="M60.6028 12.4096C59.7287 12.3546 59.6454 11.313 59.2375 10.6605C58.8296 10.0079 57.2438 8.89154 55.9327 10.4482C54.6216 12.0048 55.2501 14.2925 56.2907 15.3027C56.6127 15.6343 57.0402 15.8581 57.5086 15.9404C57.9771 16.0226 58.4612 15.9588 58.8879 15.7587L57.7683 23.5377C59.9618 27.7437 68.3363 28.695 66.0928 24.2375L66.4341 22.6298C67.4831 23.0436 68.5912 23.3085 69.7224 23.4159C71.5454 23.5495 72.9772 22.4804 73.9512 20.798C75.5204 18.1014 76.3986 13.7225 76.6275 7.85383C75.0167 5.97491 68.611 4.31611 63.866 5.86484C63.2416 9.20602 62.1345 11.2579 61.7599 11.6863C61.3853 12.1148 60.9399 12.4333 60.6028 12.4096Z" fill="#FFADAD"/>
<path d="M79.0628 3.71478C79.0534 3.66051 79.0288 3.60961 78.9914 3.56743C78.9541 3.52525 78.9054 3.49332 78.8505 3.475C78.7604 3.46192 78.6683 3.47711 78.5882 3.51824C78.0034 3.78049 77.3964 3.99612 76.7735 4.16289C77.0862 3.52776 77.2671 2.8419 77.3063 2.14246C77.3313 1.714 77.4437 0.743093 76.9317 0.519038C76.6279 0.389321 76.2865 0.577999 75.9993 0.735232C73.373 2.14246 70.7923 0.656616 68.1826 0.177059C66.0016 -0.243538 63.1879 0.00803392 61.7103 1.7769C61.036 2.58664 60.7155 3.5261 61.4439 4.35157C62.1093 5.02877 62.9333 5.5497 63.8497 5.87279C67.9828 7.54339 73.4229 10.232 77.5852 7.14637C78.1972 6.722 78.6633 6.13688 78.9254 5.46398C79.1463 4.919 79.1982 4.32593 79.0753 3.75409L79.0628 3.71478Z" fill="#263238"/>
<path d="M66.4177 22.6299C66.4177 22.6299 63.1878 21.5882 61.5104 20.0709C60.8276 19.4344 60.3449 18.6316 60.1161 17.7518C60.0593 18.5626 60.2546 19.3713 60.678 20.0787C62.1056 22.339 66.1846 23.6479 66.1846 23.6479L66.4177 22.6299Z" fill="#FFADAD"/>
<path d="M67.8166 13.078C67.7922 13.1756 67.7477 13.2677 67.6857 13.349C67.6237 13.4304 67.5454 13.4994 67.4552 13.5521C67.3649 13.6048 67.2646 13.6403 67.1598 13.6564C67.055 13.6725 66.9479 13.669 66.8446 13.646C66.7414 13.623 66.6438 13.581 66.5577 13.5225C66.4716 13.4639 66.3985 13.3899 66.3426 13.3047C66.2868 13.2195 66.2493 13.1247 66.2322 13.0258C66.2151 12.9268 66.2189 12.8257 66.2432 12.7282C66.2676 12.6306 66.3119 12.5385 66.374 12.4572C66.436 12.3758 66.5144 12.3068 66.6046 12.2541C66.6948 12.2013 66.7952 12.1659 66.8999 12.1498C67.0047 12.1336 67.1118 12.1372 67.2151 12.1602C67.3184 12.1832 67.4159 12.2251 67.502 12.2836C67.5882 12.3422 67.6613 12.4162 67.7171 12.5014C67.7729 12.5867 67.8105 12.6815 67.8276 12.7804C67.8446 12.8793 67.8408 12.9804 67.8166 13.078Z" fill="#263238"/>
<path d="M67.6708 10.0866L65.7728 10.5938C65.7066 10.3494 65.7429 10.0905 65.8739 9.87079C66.005 9.65109 66.2207 9.48763 66.4763 9.41448C66.6015 9.3822 66.7323 9.37413 66.8609 9.3907C66.9895 9.40718 67.1133 9.44805 67.2248 9.51081C67.3363 9.57357 67.4333 9.65693 67.5099 9.75583C67.5865 9.85474 67.6413 9.96729 67.6708 10.0866Z" fill="#263238"/>
<path d="M75.3707 12.4333L74.1221 10.9789C74.218 10.8964 74.3307 10.8333 74.4533 10.7933C74.5761 10.7534 74.7061 10.7376 74.8354 10.7468C74.9648 10.756 75.0908 10.7901 75.2058 10.8468C75.3207 10.9037 75.4222 10.982 75.5039 11.0772C75.6705 11.2761 75.7496 11.5279 75.7248 11.7804C75.7001 12.033 75.5732 12.2668 75.3707 12.4333Z" fill="#263238"/>
<path d="M74.4094 14.3042C74.3669 14.4482 74.2806 14.5771 74.1612 14.6752C74.0418 14.7732 73.8946 14.836 73.7377 14.8556C73.5809 14.8753 73.4214 14.851 73.279 14.7858C73.1366 14.7206 73.0177 14.6173 72.937 14.4889C72.8563 14.3603 72.8173 14.2122 72.8249 14.063C72.8325 13.9137 72.8864 13.7699 72.9798 13.6493C73.0733 13.5288 73.2021 13.4367 73.3505 13.3848C73.4988 13.3328 73.66 13.3231 73.8141 13.3569C74.025 13.4097 74.2055 13.5385 74.3168 13.7157C74.4281 13.8928 74.4614 14.1042 74.4094 14.3042Z" fill="#263238"/>
<path d="M70.4755 12.2564L69.8428 16.765L72.4692 16.7336L70.4755 12.2564Z" fill="#FFADAD"/>
<path d="M66.6302 17.7518L69.8601 18.8838C69.7904 19.0884 69.6777 19.2776 69.5288 19.4403C69.3799 19.6029 69.1978 19.7354 68.9936 19.83C68.7892 19.9247 68.5668 19.9795 68.3395 19.9912C68.1122 20.0029 67.8847 19.9712 67.6707 19.8979C67.2365 19.7375 66.8852 19.4239 66.691 19.0235C66.4969 18.6231 66.4751 18.167 66.6302 17.7518Z" fill="#B16668"/>
<path d="M66.9545 18.3176C66.818 18.2871 66.6785 18.27 66.5383 18.2665C66.5233 18.6154 66.6238 18.9602 66.826 19.2526C67.0282 19.5449 67.3219 19.7705 67.6663 19.8978C67.8414 19.9565 68.0257 19.987 68.2115 19.9882C68.2682 19.6108 68.1693 19.2272 67.9355 18.9164C67.7017 18.6056 67.3506 18.3913 66.9545 18.3176Z" fill="#FFADAD"/>
<path d="M88.4691 64.3236C88.1278 63.8088 86.8749 62.9518 86.2839 62.5077C85.6928 62.0634 85.4223 62.8772 85.5555 63.4628C85.6554 63.903 86.3588 64.4376 87.0081 64.9526L87.2412 66.5249L85.5514 68.0265C85.5514 68.0265 83.2288 68.05 82.9291 67.8457C82.4172 67.4998 82.0966 67.1184 82.5129 66.6664C82.9291 66.2144 83.312 66.0493 84.4525 66.1004C85.0088 66.1462 85.5692 66.1184 86.1174 66.0179C86.7209 65.8095 86.9083 65.4754 86.5919 65.1059C86.0674 64.4809 84.9853 64.6264 83.7491 64.3198C82.2007 63.9266 81.7304 63.4314 80.3901 62.999C79.2284 62.6837 78.0964 62.2775 77.0062 61.7843C75.7908 61.1869 59.3624 52.5352 59.3624 52.5352L54.3385 36.301C54.3385 36.301 53.3313 25.7664 50.8089 23.6006C44.9401 24.5479 44.1825 28.4708 44.3366 33.0344C44.4906 37.5982 48.5654 50.2475 50.3844 54.139C52.1408 57.9008 52.6903 58.227 55.3084 59.3984C59.2167 61.1476 70.0552 64.9015 72.5775 66.1318C73.9115 66.7246 75.1946 67.4146 76.4152 68.1955C77.6139 69.0367 80.0072 70.6759 80.6399 70.837C82.1965 71.23 85.3016 70.3496 86.2797 70.0234C87.2579 69.697 88.9727 67.3936 89.0976 66.9573C89.2224 66.521 88.8104 64.8386 88.4691 64.3236Z" fill="#FFADAD"/>
<path d="M59.8269 11.164C60.2555 11.9298 60.504 12.7671 60.5557 13.6207C60.5349 14.1673 60.4672 14.7108 60.353 15.2461L60.1151 16.2047C60.1151 16.2047 60.4694 18.685 61.9556 19.9678C63.4417 21.2505 68.0349 23.704 70.5773 23.3638C73.1197 23.0236 74.9444 19.2163 75.3581 17.0645C75.3581 17.0645 72.4127 15.3073 71.1562 15.2098C69.8995 15.1122 66.8844 15.3562 65.7325 15.2604C63.2379 15.046 62.4146 14.5843 61.3384 12.7841C60.3449 11.1598 59.8269 11.164 59.8269 11.164Z" fill="#D0AD6B"/>
<path opacity="0.7" d="M60.0588 11.3007C60.466 12.0612 60.6984 12.8945 60.7406 13.7458C60.7154 14.2913 60.6448 14.8341 60.5296 15.3692L60.2908 16.3275C60.2908 16.3275 60.6104 18.7994 62.0348 20.0669C63.4593 21.3345 67.8758 23.7445 70.3361 23.3842C73.1819 23.3842 75.0354 19.3218 75.455 17.1713C75.455 17.1713 72.1844 15.3308 70.9708 15.2438C69.7574 15.1569 66.841 15.4251 65.7286 15.3391C63.3196 15.1457 62.5282 14.6919 61.5047 12.9046C60.5596 11.2922 60.0588 11.3007 60.0588 11.3007Z" fill="white"/>
<path d="M75.0001 17.6002L75.4543 17.1709C75.4543 17.1709 71.9512 15.2016 70.7377 15.1146C69.5242 15.0277 66.6078 15.2959 65.4954 15.2099C63.0864 15.0165 62.3872 14.236 61.3637 12.4488C60.5469 10.4051 58.1819 9.87341 58.1819 9.87341C59.5455 10.7317 59.5455 12.0195 60.4546 12.878C60.4294 13.4235 60.4116 14.7049 60.2963 15.24L60.0575 16.1983C60.1432 16.9599 60.3673 17.7019 60.7201 18.3915C60.534 17.6876 60.3546 17.0053 60.7871 15.4364C61.0231 14.6242 61.0261 13.7673 60.7957 12.9536C61.0755 13.8567 61.7214 14.619 62.5932 15.0747C64.5 16.0939 66.29 15.7443 69.2939 15.6332C71.578 15.5446 72.7954 16.3443 75.0001 17.6002Z" fill="white"/>
<path d="M52.4032 23.3687C50.7383 23.4473 48.2409 23.6242 46.3055 25.3341C44.37 27.044 44.0787 30.2005 44.3618 33.4512C44.574 35.9472 46.4969 46.0297 46.4969 46.0297C46.4969 46.0297 52.091 47.1815 56.6904 43.3175C56.6196 43.1485 54.4594 32.1972 54.4594 32.1972C54.4594 32.1972 54.2596 24.5754 52.4032 23.3687Z" fill="#455A64"/>
<path d="M130.628 144.759V145.373L131.756 145.989V145.373L130.628 144.759Z" fill="#37474F"/>
<path d="M132.889 144.759V145.373L131.757 145.989V145.373L132.889 144.759Z" fill="#455A64"/>
<path d="M132.889 133.674V144.76L131.757 145.373V134.291L132.889 133.674Z" fill="#37474F"/>
<path d="M131.756 145.373L130.628 144.76V133.674L131.756 134.291V145.373Z" fill="#263238"/>
<path d="M100.135 161.387V162L101.264 162.617V162L100.135 161.387Z" fill="#37474F"/>
<path d="M102.396 161.387V162L101.265 162.617V162L102.396 161.387Z" fill="#455A64"/>
<path d="M102.396 150.301V161.386L101.265 161.999V150.914L102.396 150.301Z" fill="#37474F"/>
<path d="M101.264 161.999L100.135 161.386V150.301L101.264 150.914V161.999Z" fill="#263238"/>
<path d="M76.4194 148.455V149.068L77.5474 149.685V149.068L76.4194 148.455Z" fill="#37474F"/>
<path d="M78.6792 148.455V149.068L77.5471 149.685V149.068L78.6792 148.455Z" fill="#455A64"/>
<path d="M78.6792 137.369V148.454L77.5471 149.068V137.987L78.6792 137.369Z" fill="#455A64"/>
<path d="M77.5474 149.068L76.4194 148.454V137.369L77.5474 137.987V149.068Z" fill="#263238"/>
<path d="M95.6201 108.427L135.145 86.8745V133.675L95.6201 155.228V108.427Z" fill="#455A64"/>
<path d="M95.6192 108.427L73.031 96.1115V142.912L95.6192 155.227V108.427Z" fill="#37474F"/>
<path d="M93.3601 113.344L141.921 86.8736L112.556 70.8636L63.9951 97.334L93.3601 113.344Z" fill="#D0AD6B"/>
<path opacity="0.6" d="M93.3601 113.344L141.921 86.8736L112.556 70.8636L63.9951 97.334L93.3601 113.344Z" fill="white"/>
<path opacity="0.1" d="M109.484 98.9541C108.411 99.5396 108.411 100.491 109.484 101.076C110.087 101.363 110.753 101.513 111.428 101.513C112.104 101.513 112.769 101.363 113.372 101.076C114.445 100.491 114.445 99.5396 113.372 98.9541C112.77 98.6648 112.104 98.5145 111.428 98.5145C110.753 98.5145 110.086 98.6648 109.484 98.9541Z" fill="black"/>
<path d="M63.9951 97.334V98.5643L93.3601 114.574V113.344L63.9951 97.334Z" fill="#D0AD6B"/>
<path opacity="0.5" d="M63.9951 97.334V98.5643L93.3601 114.574V113.344L63.9951 97.334Z" fill="white"/>
<path opacity="0.15" d="M63.9951 97.334V98.5643L93.3601 114.574V113.344L63.9951 97.334Z" fill="black"/>
<path d="M93.3601 114.575L141.922 88.109V86.8745L93.3601 113.345V114.575Z" fill="#D0AD6B"/>
<path opacity="0.5" d="M93.3601 114.575L141.922 88.109V86.8745L93.3601 113.345V114.575Z" fill="white"/>
<path opacity="0.05" d="M93.3601 114.575L141.922 88.109V86.8745L93.3601 113.345V114.575Z" fill="black"/>
<path opacity="0.1" d="M96.7481 99.5902C103.194 99.5902 108.419 96.7407 108.419 93.2259C108.419 89.7119 103.194 86.8624 96.7481 86.8624C90.3024 86.8624 85.0771 89.7119 85.0771 93.2259C85.0771 96.7407 90.3024 99.5902 96.7481 99.5902Z" fill="black"/>
<path d="M104.486 94.2725C105.318 93.4861 107.641 91.3002 112.548 87.9202H100.844C98.1582 87.1973 95.3128 87.1973 92.6273 87.9202H80.9482C85.8555 91.3002 88.1864 93.5015 89.0063 94.2725L89.073 94.3351L89.2103 94.4614C90.7462 95.8213 93.5473 96.7288 96.7482 96.7288C99.9491 96.7288 102.746 95.8213 104.286 94.4614C104.324 94.4253 104.369 94.3867 104.419 94.3351L104.486 94.2725Z" fill="#E0E0E0"/>
<path d="M96.7482 92.0548C107.762 92.0548 116.689 87.3071 116.689 81.4496C116.689 75.5925 107.762 70.8444 96.7482 70.8444C85.7347 70.8444 76.8066 75.5925 76.8066 81.4496C76.8066 87.3071 85.7347 92.0548 96.7482 92.0548Z" fill="#FAFAFA"/>
<path d="M96.7481 90.5258C106.863 90.5258 115.062 86.3095 115.062 81.1077C115.062 75.9061 106.863 71.6895 96.7481 71.6895C86.6333 71.6895 78.4338 75.9061 78.4338 81.1077C78.4338 86.3095 86.6333 90.5258 96.7481 90.5258Z" fill="#EBEBEB"/>
<path d="M96.7473 90.5267C99.3 90.5353 101.844 90.2511 104.323 89.681C102.795 88.3013 99.9737 87.3776 96.7473 87.3776C93.5218 87.3776 90.6998 88.3013 89.1682 89.681C91.6491 90.2519 94.1946 90.5353 96.7473 90.5267Z" fill="#E0E0E0"/>
<path d="M110.3 84.4138L102.396 80.1017L104.652 78.8713L112.556 83.1795L110.3 84.4138Z" fill="#D0AD6B"/>
<path opacity="0.8" d="M110.3 84.4138L102.396 80.1017L104.652 78.8713L112.556 83.1795L110.3 84.4138Z" fill="white"/>
<path opacity="0.05" d="M110.3 84.4138L102.396 80.1017L104.652 78.8713L112.556 83.1795L110.3 84.4138Z" fill="black"/>
<path opacity="0.05" d="M110.3 84.413L112.556 83.1788L111.133 82.4044L108.877 83.6348L110.3 84.413Z" fill="black"/>
<path d="M102.396 80.1017L99.0037 80.7188L101.264 79.4885L104.652 78.8713L102.396 80.1017Z" fill="#D0AD6B"/>
<path opacity="0.7" d="M102.396 80.1017L99.0037 80.7188L101.264 79.4885L104.652 78.8713L102.396 80.1017Z" fill="white"/>
<path opacity="0.05" d="M102.396 80.1017L99.0037 80.7188L101.264 79.4885L104.652 78.8713L102.396 80.1017Z" fill="black"/>
<path d="M99.0037 81.9488L102.396 81.3356L110.3 85.6438V84.4134L102.396 80.1013L99.0037 80.7184V81.9488Z" fill="#D0AD6B"/>
<path opacity="0.7" d="M99.0037 81.9488L102.396 81.3356L110.3 85.6438V84.4134L102.396 80.1013L99.0037 80.7184V81.9488Z" fill="white"/>
<path opacity="0.1" d="M99.0037 81.9488L102.396 81.3356L110.3 85.6438V84.4134L102.396 80.1013L99.0037 80.7184V81.9488Z" fill="black"/>
<path opacity="0.1" d="M108.877 84.8695L110.3 85.6438V84.4135L108.877 83.6352V84.8695Z" fill="black"/>
<path d="M113.276 99.8418V79.366H109.584V99.8418C109.599 99.9946 109.657 100.141 109.753 100.267C109.848 100.392 109.976 100.491 110.125 100.553C110.53 100.747 110.977 100.848 111.431 100.848C111.884 100.848 112.331 100.747 112.735 100.553C112.884 100.49 113.012 100.391 113.107 100.266C113.203 100.141 113.261 99.9946 113.276 99.8418Z" fill="#D0AD6B"/>
<path opacity="0.8" d="M113.276 99.8418V79.366H109.584V99.8418C109.599 99.9946 109.657 100.141 109.753 100.267C109.848 100.392 109.976 100.491 110.125 100.553C110.53 100.747 110.977 100.848 111.431 100.848C111.884 100.848 112.331 100.747 112.735 100.553C112.884 100.49 113.012 100.391 113.107 100.266C113.203 100.141 113.261 99.9946 113.276 99.8418Z" fill="white"/>
<path opacity="0.03" d="M113.276 99.8418V79.366H109.584V99.8418C109.599 99.9946 109.657 100.141 109.753 100.267C109.848 100.392 109.976 100.491 110.125 100.553C110.53 100.747 110.977 100.848 111.431 100.848C111.884 100.848 112.331 100.747 112.735 100.553C112.884 100.49 113.012 100.391 113.107 100.266C113.203 100.141 113.261 99.9946 113.276 99.8418Z" fill="black"/>
<path d="M111.982 100.804C112.246 100.764 112.5 100.681 112.735 100.561C112.884 100.498 113.012 100.399 113.107 100.274C113.202 100.149 113.26 100.002 113.276 99.8495V79.366H111.982V100.804Z" fill="#D0AD6B"/>
<path opacity="0.8" d="M111.982 100.804C112.246 100.764 112.5 100.681 112.735 100.561C112.884 100.498 113.012 100.399 113.107 100.274C113.202 100.149 113.26 100.002 113.276 99.8495V79.366H111.982V100.804Z" fill="white"/>
<path opacity="0.1" d="M111.982 100.804C112.246 100.764 112.5 100.681 112.735 100.561C112.884 100.498 113.012 100.399 113.107 100.274C113.202 100.149 113.26 100.002 113.276 99.8495V79.366H111.982V100.804Z" fill="black"/>
<path d="M110.125 80.0775C110.529 80.2713 110.976 80.3723 111.43 80.3723C111.884 80.3723 112.33 80.2713 112.735 80.0775C113.455 79.6845 113.455 79.0477 112.735 78.6546C112.33 78.4609 111.884 78.3599 111.43 78.3599C110.976 78.3599 110.529 78.4609 110.125 78.6546C109.401 79.0477 109.401 79.6845 110.125 80.0775Z" fill="#D0AD6B"/>
<path opacity="0.8" d="M110.125 80.0775C110.529 80.2713 110.976 80.3723 111.43 80.3723C111.884 80.3723 112.33 80.2713 112.735 80.0775C113.455 79.6845 113.455 79.0477 112.735 78.6546C112.33 78.4609 111.884 78.3599 111.43 78.3599C110.976 78.3599 110.529 78.4609 110.125 78.6546C109.401 79.0477 109.401 79.6845 110.125 80.0775Z" fill="white"/>
<path d="M130.152 25.1045C134.248 24.0564 136.668 20.0711 135.559 16.2031C134.449 12.335 130.229 10.0489 126.134 11.0969C122.037 12.145 119.616 16.1303 120.726 19.9983C121.836 23.8664 126.056 26.1525 130.152 25.1045Z" fill="#D0AD6B"/>
<path d="M133.184 12.7283C132.632 12.5271 132.14 12.202 131.752 11.7809C132.026 11.8989 132.488 11.6669 133.084 10.9477C133.566 10.362 134.012 9.76837 134.332 9.37533L134.466 9.19452L134.836 9.44212L134.706 9.62293C134.399 10.0435 133.975 10.6411 133.558 11.2699C133.046 12.0325 132.971 12.5239 133.184 12.7283Z" fill="#D0AD6B"/>
<path opacity="0.2" d="M134.67 9.65442C134.603 9.62128 134.537 9.58453 134.474 9.54435C134.412 9.50143 134.352 9.4555 134.295 9.40682C134.357 9.32818 134.412 9.25348 134.462 9.18274L134.832 9.43034L134.67 9.65442Z" fill="black"/>
<path d="M135.435 9.52462C135.461 9.48899 135.477 9.44882 135.485 9.40675C135.487 9.39765 135.487 9.3882 135.485 9.37919C135.487 9.36485 135.487 9.35034 135.485 9.336C135.485 9.336 135.485 9.336 135.485 9.31634C135.485 9.29668 135.485 9.29273 135.485 9.28097C135.389 9.08222 135.239 8.91137 135.049 8.78628C134.86 8.66111 134.638 8.58624 134.407 8.56946H134.349H134.304H134.278C134.241 8.59191 134.208 8.62136 134.183 8.65596C134.156 8.6897 134.139 8.72876 134.133 8.76988C134.087 8.93498 134.265 9.20233 134.574 9.40675C134.882 9.61108 135.211 9.67796 135.361 9.57966C135.389 9.56558 135.414 9.54695 135.435 9.52462Z" fill="#D0AD6B"/>
<path opacity="0.3" d="M135.244 9.27295C135.173 9.36722 134.945 9.33185 134.732 9.19431C134.52 9.05669 134.403 8.86017 134.474 8.76581C134.545 8.67155 134.624 8.69902 134.748 8.73439C134.603 8.73439 134.545 8.84051 134.636 8.97418C134.745 9.10056 134.889 9.19577 135.053 9.24934C135.156 9.27295 135.232 9.24934 135.248 9.18255C135.254 9.19706 135.256 9.2126 135.255 9.22814C135.255 9.24359 135.251 9.25887 135.244 9.27295Z" fill="black"/>
<path d="M130.454 11.2267C129.865 11.2403 129.279 11.1331 128.738 10.9122C129.038 10.9122 129.288 10.8729 129.5 10.0868C129.675 9.44604 129.705 9.40672 129.8 8.95865C129.8 8.8879 129.829 8.82497 129.842 8.76599L130.287 8.84858C130.287 8.90628 130.275 8.96912 130.249 9.03729C130.158 9.48931 130.158 9.53258 130.066 10.189C129.954 10.9948 130.17 11.1284 130.454 11.2267Z" fill="#D0AD6B"/>
<path opacity="0.2" d="M130.233 9.11584C130.157 9.11224 130.082 9.10305 130.008 9.08837C129.932 9.07464 129.857 9.05626 129.784 9.03334C129.805 8.93899 129.826 8.84858 129.842 8.76599L130.287 8.84858C130.27 8.93109 130.254 9.01763 130.233 9.11584Z" fill="black"/>
<path d="M131.032 8.65591C131.045 8.6068 131.045 8.55563 131.032 8.50654C131.034 8.49613 131.034 8.4855 131.032 8.4751L131.006 8.42793C131.008 8.42011 131.008 8.41216 131.006 8.40434L130.982 8.3729C130.784 8.19125 130.53 8.07299 130.257 8.03485C129.99 7.97329 129.708 7.99395 129.454 8.09381H129.416H129.395L129.355 8.12919L129.334 8.15277C129.3 8.19329 129.277 8.24032 129.266 8.29035C129.258 8.33851 129.258 8.38763 129.266 8.43579C129.305 8.63625 129.637 8.8289 130.075 8.92317C130.511 9.01752 130.906 8.92317 131.015 8.75421C131.026 8.72244 131.032 8.6893 131.032 8.65591Z" fill="#D0AD6B"/>
<path opacity="0.3" d="M130.699 8.47148C130.67 8.60513 130.404 8.67192 130.104 8.61689C129.804 8.56188 129.579 8.40858 129.608 8.271C129.637 8.13343 129.734 8.1295 129.883 8.11377C129.725 8.17273 129.721 8.3221 129.883 8.42038C130.07 8.51282 130.282 8.54981 130.491 8.52651C130.616 8.50293 130.695 8.45575 130.67 8.36141C130.682 8.37698 130.691 8.39474 130.696 8.41365C130.701 8.43256 130.702 8.45222 130.699 8.47148Z" fill="black"/>
<path d="M127.174 10.9633C126.722 11.1569 126.234 11.2638 125.738 11.2778C125.975 11.1913 126.1 10.8532 125.992 10.2361C125.974 10.046 125.945 9.85705 125.905 9.67006C125.905 9.62027 125.892 9.57313 125.866 9.52858L126.242 9.44598C126.242 9.48925 126.262 9.53639 126.279 9.59142C126.326 9.77669 126.388 9.9581 126.466 10.1339C126.649 10.7314 126.924 10.9829 127.174 10.9633Z" fill="#D0AD6B"/>
<path opacity="0.2" d="M126.296 9.66611C126.236 9.68972 126.175 9.70818 126.112 9.72115C126.049 9.73583 125.986 9.74501 125.921 9.7487C125.921 9.67006 125.883 9.59537 125.866 9.52858L126.241 9.44598C126.258 9.51286 126.275 9.58756 126.296 9.66611Z" fill="black"/>
<path d="M126.649 9.14335C126.638 9.10815 126.622 9.07492 126.599 9.04505L126.57 9.02144H126.544C126.354 8.95027 126.145 8.93095 125.943 8.96563C125.741 9.0004 125.553 9.0878 125.4 9.21804C125.399 9.22586 125.399 9.23375 125.4 9.24157V9.27694V9.30055C125.392 9.33549 125.392 9.37172 125.4 9.40666C125.409 9.44075 125.424 9.47286 125.446 9.50102C125.529 9.61898 125.808 9.66611 126.12 9.59537C126.433 9.52463 126.657 9.37129 126.678 9.2298C126.674 9.19941 126.664 9.16996 126.649 9.14335Z" fill="#D0AD6B"/>
<path opacity="0.3" d="M126.37 9.11188C126.391 9.21018 126.241 9.32411 126.025 9.37133C125.808 9.41846 125.608 9.37133 125.608 9.28093C125.608 9.19052 125.645 9.15515 125.737 9.10398C125.654 9.18657 125.695 9.28479 125.833 9.30445C125.979 9.31055 126.124 9.27638 126.249 9.20623C126.324 9.15515 126.357 9.10398 126.315 9.04895C126.34 9.06449 126.359 9.08638 126.37 9.11188Z" fill="black"/>
<path d="M124.335 11.8558C123.932 12.2629 123.43 12.5718 122.874 12.756C123.09 12.5594 123.035 12.072 122.553 11.2976C122.162 10.6648 121.762 10.0634 121.471 9.63882C121.425 9.57597 121.384 9.51699 121.345 9.45801L121.725 9.22217L121.854 9.40298C122.149 9.82357 122.574 10.4053 123.035 10.9753C123.602 11.7261 124.055 11.9698 124.335 11.8558Z" fill="#D0AD6B"/>
<path opacity="0.2" d="M121.883 9.45762C121.826 9.50492 121.766 9.54828 121.704 9.58734C121.641 9.62864 121.574 9.66418 121.504 9.69354L121.345 9.46552L121.725 9.22968C121.775 9.30042 121.829 9.37511 121.883 9.45762Z" fill="black"/>
<path d="M122.146 8.55358C122.114 8.51043 122.073 8.47423 122.025 8.44745H121.992H121.937H121.908H121.863C121.573 8.44685 121.29 8.5336 121.056 8.69509C120.806 8.83554 120.61 9.04571 120.494 9.29649V9.33581C120.494 9.33581 120.494 9.33581 120.494 9.36329C120.491 9.38166 120.491 9.40003 120.494 9.41832C120.496 9.42879 120.496 9.43935 120.494 9.44983C120.503 9.50263 120.523 9.55328 120.552 9.59921C120.584 9.64034 120.624 9.67622 120.668 9.70533C120.851 9.8311 121.264 9.75641 121.655 9.51267C122.046 9.26902 122.283 8.93883 122.233 8.72651C122.218 8.66332 122.188 8.60408 122.146 8.55358Z" fill="#D0AD6B"/>
<path opacity="0.3" d="M121.75 8.64804C121.834 8.76987 121.684 9.00176 121.414 9.1708C121.143 9.33985 120.855 9.37522 120.772 9.25726C120.689 9.13938 120.772 9.06074 120.855 8.94278C120.785 9.10006 120.897 9.21407 121.097 9.17475C121.316 9.11577 121.512 8.99343 121.655 8.8249C121.73 8.72265 121.75 8.63224 121.655 8.58118C121.694 8.59275 121.727 8.61627 121.75 8.64804Z" fill="black"/>
<path d="M121.926 13.9353C121.722 14.4258 121.451 14.8886 121.117 15.3111C121.23 15.0634 121.117 14.7686 120.701 14.5013C120.368 14.2851 120.036 14.1083 119.79 13.9628L119.686 13.9078L119.898 13.55C119.932 13.5701 119.966 13.5884 120.002 13.6051C120.247 13.7309 120.597 13.896 120.967 14.0493C121.442 14.2183 121.763 14.1397 121.926 13.9353Z" fill="#D0AD6B"/>
<path opacity="0.2" d="M120.076 13.6206C120.047 13.6796 120.018 13.7424 119.981 13.8053C119.946 13.8655 119.907 13.9233 119.864 13.9782L119.702 13.8918L119.914 13.5341L120.076 13.6206Z" fill="black"/>
<path d="M119.902 12.9874C119.866 12.9716 119.828 12.961 119.789 12.956H119.752H119.71H119.689H119.66C119.483 13.044 119.337 13.1811 119.244 13.3491C119.135 13.5158 119.085 13.7117 119.103 13.9073C119.103 13.9073 119.103 13.9073 119.103 13.9387C119.103 13.9702 119.103 13.9387 119.103 13.9387C119.101 13.9504 119.101 13.9624 119.103 13.974C119.125 14.0057 119.155 14.0315 119.19 14.0487C119.225 14.0663 119.263 14.0771 119.303 14.0802C119.461 14.1038 119.697 13.9269 119.86 13.6478C120.023 13.3688 120.052 13.0897 119.947 12.9757C119.932 12.9781 119.916 12.982 119.902 12.9874Z" fill="#D0AD6B"/>
<path opacity="0.3" d="M119.685 13.1723C119.781 13.2233 119.768 13.416 119.656 13.6086C119.544 13.8012 119.377 13.9151 119.282 13.8641C119.185 13.813 119.203 13.7462 119.224 13.6401C119.224 13.7619 119.344 13.7973 119.461 13.7108C119.573 13.6025 119.649 13.466 119.681 13.3177C119.681 13.2273 119.681 13.1644 119.598 13.1605C119.627 13.1542 119.658 13.1584 119.685 13.1723Z" fill="black"/>
<path d="M120.676 16.6392C120.765 17.1903 120.714 17.7536 120.526 18.2823C120.497 17.9992 120.06 17.7359 119.124 17.614C118.357 17.5118 117.616 17.4371 117.088 17.39L116.859 17.3704L116.901 16.9458H117.125C117.658 16.9851 118.399 17.0323 119.174 17.0559C120.118 17.0991 120.593 16.9144 120.676 16.6392Z" fill="#D0AD6B"/>
<path opacity="0.2" d="M117.184 16.9657C117.19 17.0377 117.19 17.1099 117.184 17.1819C117.176 17.2546 117.164 17.3268 117.146 17.3981L116.859 17.3706L116.901 16.946L117.184 16.9657Z" fill="black"/>
<path d="M116.555 16.1243C116.495 16.1219 116.435 16.1299 116.376 16.1479H116.339L116.285 16.1833H116.26L116.226 16.2147C116.034 16.451 115.924 16.7381 115.91 17.0362C115.865 17.3339 115.925 17.6372 116.077 17.901C116.085 17.9156 116.094 17.9288 116.106 17.9403L116.126 17.9639L116.173 18.0032H116.205C116.258 18.0325 116.316 18.05 116.376 18.0543C116.435 18.0596 116.495 18.0529 116.551 18.0347C116.793 17.9718 117.005 17.5865 117.046 17.1031C117.088 16.6196 116.951 16.2069 116.73 16.1086C116.672 16.1037 116.612 16.109 116.555 16.1243Z" fill="#D0AD6B"/>
<path opacity="0.3" d="M116.373 16.5096C116.539 16.5096 116.651 16.8043 116.622 17.1385C116.593 17.4726 116.431 17.7281 116.26 17.7124C116.16 17.7124 116.076 17.5944 116.035 17.4333C116.131 17.5984 116.31 17.5866 116.41 17.394C116.498 17.18 116.517 16.946 116.464 16.7218C116.418 16.5921 116.352 16.5135 116.244 16.5528C116.261 16.5378 116.281 16.5262 116.303 16.5188C116.325 16.5113 116.349 16.5082 116.373 16.5096Z" fill="black"/>
<path d="M120.702 19.5954C120.993 20.1082 121.195 20.6615 121.301 21.2345C121.164 20.9673 120.776 20.8415 120.131 21.0026C119.606 21.1284 119.107 21.2778 118.749 21.3957L118.599 21.4429L118.446 21.0105L118.596 20.9633C118.949 20.8415 119.428 20.6685 119.936 20.4602C120.544 20.2244 120.768 19.8863 120.702 19.5954Z" fill="#D0AD6B"/>
<path opacity="0.2" d="M118.649 20.9435C118.683 21.0104 118.712 21.0772 118.741 21.1519C118.768 21.2238 118.791 21.2973 118.807 21.372L118.599 21.4388L118.446 21.0104L118.649 20.9435Z" fill="black"/>
<path d="M117.937 20.6176C117.894 20.6327 117.854 20.6553 117.82 20.6844C117.808 20.6958 117.798 20.7091 117.791 20.7237V20.7551C117.74 20.9688 117.752 21.1916 117.825 21.3994C117.899 21.6073 118.031 21.7922 118.207 21.9343H118.236H118.262H118.303H118.344C118.388 21.9437 118.434 21.9437 118.478 21.9343C118.519 21.9221 118.556 21.9005 118.586 21.8715C118.727 21.7653 118.748 21.4469 118.624 21.1128C118.499 20.7787 118.244 20.6176 118.065 20.6176C118.024 20.6096 117.979 20.6096 117.937 20.6176Z" fill="#D0AD6B"/>
<path opacity="0.3" d="M117.933 20.9358C118.049 20.8965 118.212 21.0537 118.299 21.2856C118.386 21.5176 118.357 21.7338 118.241 21.7731C118.125 21.8123 118.079 21.7455 118 21.6472C118.116 21.7338 118.233 21.6748 118.236 21.5176C118.229 21.3486 118.168 21.1857 118.062 21.0498C117.991 20.9751 117.925 20.9437 117.862 20.9987C117.869 20.9842 117.878 20.9711 117.891 20.9602C117.903 20.9494 117.917 20.9411 117.933 20.9358Z" fill="black"/>
<path d="M122.141 22.524C122.465 22.8153 122.77 23.1237 123.056 23.4477C122.924 23.3298 122.695 23.2159 122.532 23.2984C122.409 23.3631 122.294 23.4395 122.186 23.5264L122.154 23.5539L121.962 23.3573L121.996 23.3298C122.093 23.2371 122.176 23.131 122.241 23.0154C122.28 22.9337 122.291 22.8427 122.273 22.7548C122.256 22.6669 122.209 22.5864 122.141 22.524Z" fill="#D0AD6B"/>
<path opacity="0.2" d="M122.037 23.2903L122.141 23.3846L122.233 23.4869L122.154 23.5537L121.962 23.3572L122.037 23.2903Z" fill="black"/>
<path d="M121.421 23.2433C121.395 23.2648 121.375 23.2917 121.363 23.3219C121.361 23.3297 121.361 23.3378 121.363 23.3455C121.36 23.3559 121.36 23.3666 121.363 23.3769C121.361 23.3847 121.361 23.3928 121.363 23.4005C121.393 23.5671 121.479 23.7201 121.608 23.8368C121.724 23.9663 121.88 24.0583 122.054 24.1002H122.145H122.166C122.2 24.0916 122.232 24.0754 122.257 24.053C122.281 24.0303 122.299 24.0036 122.312 23.9745C122.374 23.8565 122.283 23.6246 122.087 23.4281C121.891 23.2315 121.65 23.1254 121.521 23.1764C121.481 23.1881 121.445 23.2115 121.421 23.2433Z" fill="#D0AD6B"/>
<path opacity="0.3" d="M121.521 23.4632C121.592 23.4003 121.758 23.4632 121.896 23.6007C122.033 23.7383 122.086 23.8995 122.016 23.9623C121.946 24.0253 121.891 23.9899 121.804 23.9427C121.912 23.9702 121.975 23.8955 121.928 23.7815C121.865 23.6668 121.768 23.5715 121.65 23.5064C121.575 23.475 121.516 23.471 121.492 23.53C121.491 23.5175 121.494 23.5051 121.498 23.4936C121.504 23.482 121.511 23.4717 121.521 23.4632Z" fill="black"/>
<path d="M124.51 24.4302C125.091 24.5261 125.644 24.7363 126.133 25.0473C125.837 24.9844 125.584 24.9805 125.23 25.6958C124.938 26.2815 124.897 26.3091 124.722 26.7257C124.693 26.7847 124.668 26.8437 124.643 26.8987L124.226 26.7414C124.252 26.6864 124.276 26.6274 124.302 26.5646C124.473 26.1479 124.481 26.1047 124.697 25.4954C124.955 24.7446 124.768 24.5795 124.51 24.4302Z" fill="#D0AD6B"/>
<path opacity="0.2" d="M124.326 26.4902C124.402 26.5063 124.475 26.5273 124.547 26.553C124.618 26.5789 124.686 26.6105 124.751 26.6474L124.643 26.8989L124.226 26.7417C124.255 26.6631 124.294 26.5766 124.326 26.4902Z" fill="black"/>
<path d="M123.453 26.7965C123.434 26.8428 123.424 26.8922 123.424 26.9419C123.424 26.9419 123.424 26.9655 123.424 26.9734C123.424 26.9812 123.424 26.9734 123.424 26.9734C123.422 26.9904 123.422 27.0075 123.424 27.0245V27.0481V27.0835C123.577 27.2994 123.803 27.4611 124.065 27.5434C124.316 27.653 124.596 27.6846 124.868 27.6338H124.909H124.935L124.98 27.6102C124.98 27.6102 125.001 27.6102 125.006 27.6102C125.045 27.5764 125.075 27.5349 125.095 27.4887C125.115 27.4425 125.125 27.3928 125.122 27.3429C125.122 27.1385 124.843 26.8751 124.426 26.7179C124.01 26.5606 123.615 26.5685 123.469 26.7179C123.461 26.7434 123.456 26.7698 123.453 26.7965Z" fill="#D0AD6B"/>
<path opacity="0.3" d="M123.735 27.0364C123.794 26.9067 124.069 26.891 124.352 27.001C124.635 27.1111 124.826 27.2997 124.768 27.4255C124.71 27.5514 124.614 27.5435 124.46 27.5317C124.631 27.5041 124.664 27.3587 124.523 27.229C124.355 27.1068 124.155 27.0331 123.944 27.0168C123.819 27.0168 123.732 27.0521 123.74 27.1465C123.725 27.1115 123.723 27.0723 123.735 27.0364Z" fill="black"/>
<path d="M127.703 25.2441C128.185 25.1361 128.685 25.1188 129.175 25.193C128.926 25.2363 128.739 25.5428 128.722 26.156C128.697 26.3424 128.687 26.5303 128.693 26.7181C128.693 26.7693 128.693 26.8164 128.693 26.8636H128.31C128.31 26.8203 128.31 26.7693 128.31 26.7181C128.3 26.5306 128.274 26.3439 128.235 26.16C128.168 25.5625 127.956 25.2716 127.703 25.2441Z" fill="#D0AD6B"/>
<path opacity="0.2" d="M128.314 26.6473C128.378 26.643 128.442 26.643 128.505 26.6473C128.569 26.6413 128.634 26.6413 128.697 26.6473C128.697 26.7259 128.697 26.8045 128.697 26.8752H128.314C128.314 26.8045 128.314 26.7298 128.314 26.6473Z" fill="black"/>
<path d="M127.86 27.1032C127.862 27.139 127.872 27.1739 127.889 27.2054L127.915 27.2329H127.939C128.109 27.3269 128.305 27.3694 128.501 27.3548C128.697 27.3564 128.888 27.2986 129.046 27.1897H129.072C129.08 27.1801 129.087 27.1695 129.093 27.1582V27.1347C129.105 27.1021 129.113 27.0674 129.114 27.0324C129.11 26.9971 129.1 26.9625 129.084 26.9303C129.025 26.7966 128.759 26.7062 128.443 26.7179C128.126 26.7298 127.869 26.8399 127.819 26.9774C127.819 27.0223 127.834 27.0662 127.86 27.1032Z" fill="#D0AD6B"/>
<path opacity="0.3" d="M128.123 27.1778C128.123 27.0795 128.293 26.997 128.509 26.9891C128.726 26.9813 128.926 27.052 128.926 27.1503C128.926 27.2486 128.864 27.2682 128.759 27.3036C128.864 27.2368 128.838 27.1346 128.706 27.0914C128.562 27.049 128.407 27.049 128.264 27.0914C128.185 27.1267 128.139 27.17 128.173 27.2289C128.161 27.2239 128.151 27.2169 128.142 27.2081C128.134 27.1993 128.126 27.1891 128.123 27.1778Z" fill="black"/>
<path d="M130.724 24.8627C131.181 24.5139 131.718 24.2715 132.293 24.1552C132.047 24.3242 132.039 24.8116 132.409 25.6292C132.709 26.3014 133.021 26.9342 133.242 27.3903C133.278 27.4558 133.311 27.5186 133.342 27.5789L132.925 27.7715C132.896 27.7126 132.863 27.6458 132.825 27.5789C132.588 27.1269 132.247 26.5058 131.868 25.873C131.427 25.075 131.015 24.7841 130.724 24.8627Z" fill="#D0AD6B"/>
<path opacity="0.2" d="M132.818 27.508C132.883 27.4682 132.949 27.4315 133.017 27.398C133.086 27.3666 133.157 27.3404 133.23 27.3193C133.272 27.4058 133.317 27.4844 133.354 27.5591L132.938 27.7517C132.893 27.6928 132.864 27.5945 132.818 27.508Z" fill="black"/>
<path d="M132.443 28.373C132.468 28.4198 132.504 28.4613 132.546 28.4948H132.575L132.625 28.5185H132.654H132.701C132.987 28.5381 133.275 28.4851 133.534 28.3649C133.792 28.2447 134.012 28.0616 134.17 27.8345C134.171 27.8214 134.171 27.8083 134.17 27.7952C134.172 27.7861 134.172 27.7768 134.17 27.7677C134.174 27.7496 134.174 27.7308 134.17 27.7126C134.174 27.7012 134.174 27.6888 134.17 27.6773C134.169 27.6242 134.156 27.5718 134.133 27.5239C134.108 27.4783 134.074 27.438 134.033 27.4061C133.866 27.2567 133.45 27.2842 133.029 27.4768C132.609 27.6695 132.33 27.9721 132.355 28.1843C132.364 28.2542 132.394 28.32 132.443 28.373Z" fill="#D0AD6B"/>
<path opacity="0.3" d="M132.846 28.3257C132.78 28.196 132.959 27.9798 133.263 27.8461C133.567 27.7125 133.842 27.7085 133.908 27.8461C133.974 27.9837 133.908 28.0426 133.784 28.1449C133.879 27.9995 133.784 27.8736 133.575 27.8894C133.356 27.9245 133.154 28.0202 132.993 28.1645C132.905 28.2628 132.872 28.3454 132.954 28.4082C132.931 28.4035 132.909 28.3935 132.89 28.3792C132.872 28.3648 132.856 28.3465 132.846 28.3257Z" fill="black"/>
<path d="M133.726 23.023C133.994 22.5619 134.326 22.1363 134.712 21.7573C134.566 21.9892 134.625 22.2957 134.991 22.6063C135.29 22.8579 135.59 23.0858 135.823 23.2431L135.915 23.3099L135.661 23.6401L135.565 23.5732C135.34 23.42 135.02 23.2156 134.675 23.023C134.254 22.7872 133.929 22.8264 133.726 23.023Z" fill="#D0AD6B"/>
<path opacity="0.2" d="M135.515 23.5341C135.549 23.4752 135.588 23.4187 135.632 23.3652C135.675 23.3091 135.72 23.2553 135.769 23.2039L135.919 23.3101L135.665 23.6403L135.515 23.5341Z" fill="black"/>
<path d="M135.598 24.1827C135.63 24.2044 135.667 24.2191 135.706 24.2259H135.744C135.757 24.2299 135.772 24.2299 135.785 24.2259H135.806H135.839C136.033 24.1559 136.198 24.031 136.314 23.8683C136.446 23.7173 136.522 23.5295 136.53 23.3336V23.3022V23.2669V23.2472C136.512 23.2141 136.485 23.1852 136.455 23.1628C136.423 23.1404 136.386 23.1249 136.347 23.1175C136.193 23.0742 135.931 23.2236 135.735 23.4751C135.54 23.7268 135.469 24.0058 135.556 24.1355C135.568 24.153 135.582 24.1687 135.598 24.1827Z" fill="#D0AD6B"/>
<path opacity="0.3" d="M135.839 24.0251C135.752 23.9662 135.789 23.7736 135.926 23.5967C136.064 23.4198 136.247 23.3294 136.343 23.3883C136.438 23.4473 136.404 23.5141 136.367 23.6203C136.367 23.4945 136.272 23.4473 136.147 23.5181C136.019 23.6101 135.924 23.736 135.872 23.8797C135.852 23.9662 135.872 24.0291 135.934 24.0448C135.918 24.0478 135.901 24.0476 135.884 24.0442C135.868 24.0408 135.853 24.0344 135.839 24.0251Z" fill="black"/>
<path d="M135.224 20.7665C135.213 20.209 135.379 19.6613 135.702 19.1942C135.702 19.4812 136.185 19.8468 137.321 20.2005C137.592 20.287 138.187 20.5307 138.836 20.7076L139.111 20.7822L138.99 21.195L138.711 21.1243C138.058 20.9513 137.355 20.7705 137.163 20.7312C135.997 20.4482 135.39 20.515 135.224 20.7665Z" fill="#D0AD6B"/>
<path opacity="0.2" d="M138.72 21.1087C138.739 20.9647 138.781 20.8243 138.845 20.6921L139.119 20.7668L138.999 21.1795L138.72 21.1087Z" fill="black"/>
<path d="M139.165 22.0444C139.224 22.0581 139.285 22.0581 139.344 22.0444H139.385L139.444 22.0208H139.469L139.515 21.9933C139.754 21.7967 139.921 21.5341 139.994 21.2425C140.092 20.9577 140.092 20.6508 139.994 20.3659C139.987 20.3512 139.98 20.3368 139.973 20.3227C139.974 20.3136 139.974 20.3044 139.973 20.2952L139.935 20.248L139.905 20.2244C139.859 20.1872 139.805 20.1591 139.747 20.1419C139.688 20.1303 139.627 20.1303 139.569 20.1419C139.323 20.1419 139.035 20.5035 138.898 20.9674C138.761 21.4312 138.811 21.8636 139.011 22.0012C139.059 22.0249 139.111 22.0396 139.165 22.0444Z" fill="#D0AD6B"/>
<path opacity="0.3" d="M139.419 21.7024C139.261 21.6592 139.207 21.3644 139.303 21.0421C139.398 20.7197 139.606 20.4956 139.769 20.5389C139.931 20.5822 139.931 20.6883 139.936 20.8573C139.877 20.6765 139.698 20.6569 139.561 20.8258C139.431 21.0209 139.366 21.2482 139.374 21.4784C139.374 21.612 139.44 21.7024 139.556 21.6828C139.516 21.7058 139.466 21.7128 139.419 21.7024Z" fill="black"/>
<path d="M135.756 17.9327C135.543 17.3836 135.454 16.7985 135.495 16.2149C135.585 16.5018 136.039 16.6788 136.901 16.608C137.605 16.553 137.534 16.549 138.016 16.4861L138.22 16.4626L138.287 16.9067L138.083 16.9343C137.6 17.005 137.667 17.0404 136.985 17.1741C136.139 17.343 135.761 17.634 135.756 17.9327Z" fill="#D0AD6B"/>
<path opacity="0.2" d="M138.07 16.9421C138.07 16.8714 138.036 16.7967 138.025 16.718C138.012 16.6394 138.025 16.5647 138.004 16.494L138.22 16.4665L138.286 16.9107L138.07 16.9421Z" fill="black"/>
<path d="M138.72 17.3783C138.764 17.3747 138.805 17.3597 138.841 17.335H138.865L138.895 17.3036C138.894 17.2931 138.894 17.2826 138.895 17.2721C138.982 17.0705 139.011 16.8505 138.978 16.6349C138.945 16.4192 138.852 16.2159 138.707 16.0458L138.678 16.0222L138.636 15.9986H138.607C138.564 15.9886 138.518 15.9886 138.475 15.9986C138.432 16.0039 138.391 16.0173 138.354 16.0379C138.195 16.1205 138.112 16.431 138.166 16.7808C138.221 17.1306 138.391 17.4058 138.583 17.4412C138.634 17.4333 138.682 17.4115 138.72 17.3783Z" fill="#D0AD6B"/>
<path opacity="0.3" d="M138.774 17.0796C138.653 17.0993 138.524 16.9146 138.486 16.6866C138.448 16.4586 138.515 16.2345 138.64 16.2188C138.764 16.2031 138.794 16.2738 138.848 16.3839C138.753 16.2817 138.627 16.321 138.59 16.4703C138.566 16.6379 138.594 16.8084 138.669 16.9617C138.724 17.0443 138.785 17.0914 138.856 17.0482C138.834 17.0672 138.804 17.0783 138.774 17.0796Z" fill="black"/>
<path d="M134.974 14.7682C134.714 14.4238 134.475 14.0654 134.258 13.6951C134.366 13.8366 134.57 13.9899 134.749 13.9348C134.883 13.8948 135.011 13.8407 135.132 13.7737H135.169L135.319 13.9978L135.282 14.0214C135.166 14.0929 135.064 14.1818 134.978 14.2847C134.928 14.3563 134.901 14.4401 134.9 14.5258C134.899 14.6117 134.925 14.6958 134.974 14.7682Z" fill="#D0AD6B"/>
<path opacity="0.2" d="M135.214 14.0333C135.186 13.9982 135.159 13.9615 135.135 13.9233C135.11 13.8851 135.086 13.8458 135.064 13.8053L135.152 13.7542L135.302 13.9783L135.214 14.0333Z" fill="black"/>
<path opacity="0.3" d="M135.756 13.9548C135.677 14.002 135.523 13.9116 135.419 13.7544C135.315 13.5971 135.29 13.4242 135.373 13.3612C135.456 13.2983 135.498 13.3612 135.577 13.4163C135.473 13.3691 135.398 13.4163 135.419 13.5539C135.456 13.679 135.533 13.7902 135.639 13.8722C135.706 13.9194 135.765 13.9312 135.797 13.8722C135.8 13.8884 135.797 13.9048 135.79 13.9195C135.783 13.9341 135.771 13.9464 135.756 13.9548Z" fill="black"/>
<path opacity="0.1" d="M132.588 24.0059C130.698 25.1852 124.904 25.5782 122.133 21.0146C119.361 16.4509 123.464 12.2489 125.192 11.3919C124.192 11.7825 123.29 12.3684 122.545 13.1111C121.802 13.8538 121.233 14.7366 120.874 15.7017C120.517 16.6667 120.38 17.6921 120.472 18.7108C120.563 19.7296 120.881 20.7185 121.405 21.613C121.93 22.5074 122.649 23.287 123.514 23.9008C124.38 24.5146 125.374 24.9486 126.429 25.1746C127.485 25.4006 128.58 25.4132 129.641 25.2118C130.703 25.0104 131.706 24.5995 132.588 24.0059Z" fill="black"/>
<path d="M123.539 18.09C123.608 18.3116 123.584 18.5497 123.472 18.7547C123.359 18.9598 123.167 19.1159 122.936 19.1906C122.52 19.2575 122.083 18.8761 121.983 18.3377C121.914 18.1161 121.938 17.878 122.051 17.6729C122.163 17.4679 122.355 17.3117 122.586 17.237C123.015 17.1702 123.444 17.5515 123.539 18.09Z" fill="#D0AD6B"/>
<path opacity="0.15" d="M123.539 18.09C123.608 18.3116 123.584 18.5497 123.472 18.7547C123.359 18.9598 123.167 19.1159 122.936 19.1906C122.52 19.2575 122.083 18.8761 121.983 18.3377C121.914 18.1161 121.938 17.878 122.051 17.6729C122.163 17.4679 122.355 17.3117 122.586 17.237C123.015 17.1702 123.444 17.5515 123.539 18.09Z" fill="black"/>
<path opacity="0.15" d="M122.386 17.5984C122.54 17.3862 122.977 17.5434 123.103 18.0348C123.157 18.1918 123.164 18.3606 123.121 18.521C123.077 18.6813 122.986 18.8264 122.856 18.9388C122.817 18.9569 122.776 18.9674 122.732 18.9698C122.688 18.9722 122.646 18.9666 122.604 18.953C122.563 18.9395 122.526 18.9184 122.493 18.891C122.461 18.8636 122.435 18.8305 122.416 18.7934C122.557 18.8995 122.745 18.8602 122.853 18.644C122.916 18.5011 122.943 18.3458 122.93 18.1912C122.917 18.0366 122.865 17.8872 122.777 17.7557C122.661 17.5945 122.486 17.5395 122.386 17.5984Z" fill="black"/>
<path d="M132.659 19.5442C132.726 19.0018 133.134 18.6009 133.566 18.648C133.999 18.6951 134.295 19.1747 134.228 19.7172C134.162 20.2596 133.754 20.6606 133.308 20.6173C132.863 20.5741 132.593 20.0866 132.659 19.5442Z" fill="#D0AD6B"/>
<path opacity="0.15" d="M132.659 19.5442C132.726 19.0018 133.134 18.6009 133.566 18.648C133.999 18.6951 134.295 19.1747 134.228 19.7172C134.162 20.2596 133.754 20.6606 133.308 20.6173C132.863 20.5741 132.593 20.0866 132.659 19.5442Z" fill="black"/>
<path opacity="0.15" d="M133.621 20.3184C133.408 20.4796 133.038 20.2162 133.063 19.7131C133.088 19.32 133.321 18.9545 133.566 18.9269C133.609 18.9201 133.653 18.9214 133.695 18.9306C133.737 18.9398 133.777 18.9568 133.813 18.9805C133.847 19.0042 133.877 19.0342 133.9 19.0689C133.923 19.1036 133.938 19.1421 133.945 19.1824C133.842 19.0449 133.654 19.033 133.484 19.2138C133.385 19.3332 133.319 19.4725 133.288 19.6207C133.258 19.7689 133.265 19.9217 133.309 20.0669C133.354 20.2516 133.492 20.3459 133.621 20.3184Z" fill="black"/>
<path d="M127.802 15.8255C127.614 15.9024 127.4 15.9073 127.208 15.8391C127.016 15.771 126.858 15.6351 126.77 15.4599C126.666 15.1298 126.961 14.7564 127.427 14.6266C127.616 14.5495 127.828 14.544 128.021 14.6114C128.213 14.6788 128.37 14.8139 128.46 14.9883C128.564 15.3184 128.268 15.6959 127.802 15.8255Z" fill="#D0AD6B"/>
<path opacity="0.15" d="M127.802 15.8255C127.614 15.9024 127.4 15.9073 127.208 15.8391C127.016 15.771 126.858 15.6351 126.77 15.4599C126.666 15.1298 126.961 14.7564 127.427 14.6266C127.616 14.5495 127.828 14.544 128.021 14.6114C128.213 14.6788 128.37 14.8139 128.46 14.9883C128.564 15.3184 128.268 15.6959 127.802 15.8255Z" fill="black"/>
<path opacity="0.15" d="M128.119 14.8668C128.323 14.9689 128.231 15.3267 127.806 15.4761C127.673 15.5389 127.522 15.5628 127.374 15.5446C127.225 15.5264 127.086 15.467 126.974 15.3738C126.954 15.345 126.94 15.3128 126.934 15.2789C126.927 15.2449 126.927 15.2102 126.935 15.1765C126.943 15.1429 126.958 15.111 126.979 15.0828C127 15.0546 127.026 15.0306 127.057 15.0122C126.978 15.134 127.028 15.2756 127.232 15.3384C127.364 15.3752 127.504 15.3812 127.64 15.3559C127.775 15.3305 127.903 15.2746 128.011 15.193C128.152 15.0829 128.181 14.9532 128.119 14.8668Z" fill="black"/>
<path d="M127.115 19.8902C127.631 20.1379 127.894 20.6332 127.694 20.9988C127.494 21.3643 126.924 21.4665 126.404 21.2189C125.884 20.9712 125.629 20.4759 125.824 20.1104C126.021 19.7448 126.599 19.6466 127.115 19.8902Z" fill="#D0AD6B"/>
<path opacity="0.15" d="M127.115 19.8902C127.631 20.1379 127.894 20.6332 127.694 20.9988C127.494 21.3643 126.924 21.4665 126.404 21.2189C125.884 20.9712 125.629 20.4759 125.824 20.1104C126.021 19.7448 126.599 19.6466 127.115 19.8902Z" fill="black"/>
<path opacity="0.15" d="M126.012 20.4798C125.924 20.2322 126.315 19.9924 126.807 20.1928C127.198 20.3462 127.473 20.6802 127.435 20.9122C127.428 20.9524 127.412 20.9908 127.388 21.0251C127.365 21.0595 127.334 21.089 127.299 21.1121C127.264 21.1351 127.224 21.1512 127.181 21.1595C127.138 21.1676 127.094 21.1678 127.053 21.1598C127.223 21.1165 127.302 20.9554 127.177 20.7432C127.094 20.6094 126.978 20.4966 126.839 20.4144C126.7 20.3324 126.542 20.2833 126.378 20.2715C126.17 20.2636 126.033 20.354 126.012 20.4798Z" fill="black"/>
<path d="M126.62 13.711C126.389 13.7956 126.132 13.7916 125.905 13.6998C125.676 13.608 125.495 13.4356 125.401 13.2196C125.301 12.8266 125.675 12.3902 126.233 12.2644C126.791 12.1387 127.336 12.3588 127.435 12.7597C127.535 13.1607 127.186 13.5852 126.62 13.711Z" fill="#D0AD6B"/>
<path opacity="0.15" d="M126.62 13.711C126.389 13.7956 126.132 13.7916 125.905 13.6998C125.676 13.608 125.495 13.4356 125.401 13.2196C125.301 12.8266 125.675 12.3902 126.233 12.2644C126.791 12.1387 127.336 12.3588 127.435 12.7597C127.535 13.1607 127.186 13.5852 126.62 13.711Z" fill="black"/>
<path opacity="0.15" d="M127.065 12.5909C127.298 12.7285 127.165 13.1491 126.649 13.2945C126.488 13.3597 126.31 13.3788 126.138 13.3494C125.965 13.32 125.806 13.2435 125.679 13.1294C125.635 13.0574 125.624 12.972 125.646 12.8917C125.668 12.8114 125.724 12.7428 125.8 12.7009C125.7 12.8425 125.75 13.0154 125.991 13.0941C126.146 13.1446 126.312 13.1591 126.474 13.1365C126.636 13.1139 126.791 13.0549 126.924 12.9643C127.086 12.8503 127.132 12.697 127.065 12.5909Z" fill="black"/>
<path d="M130.104 19.4382C130.232 19.3985 130.37 19.3936 130.502 19.4239C130.634 19.4542 130.754 19.5186 130.848 19.6099C130.944 19.7011 131.009 19.8156 131.039 19.9404C131.069 20.0651 131.062 20.1954 131.017 20.3163C130.974 20.4373 130.895 20.5443 130.789 20.6252C130.685 20.706 130.557 20.7577 130.424 20.7743C130.289 20.7909 130.153 20.7717 130.029 20.719C129.905 20.6663 129.8 20.5821 129.725 20.4759C129.632 20.2904 129.62 20.0781 129.69 19.8842C129.761 19.6904 129.909 19.5304 130.104 19.4382Z" fill="#D0AD6B"/>
<path opacity="0.15" d="M130.104 19.4382C130.232 19.3985 130.37 19.3936 130.502 19.4239C130.634 19.4542 130.754 19.5186 130.848 19.6099C130.944 19.7011 131.009 19.8156 131.039 19.9404C131.069 20.0651 131.062 20.1954 131.017 20.3163C130.974 20.4373 130.895 20.5443 130.789 20.6252C130.685 20.706 130.557 20.7577 130.424 20.7743C130.289 20.7909 130.153 20.7717 130.029 20.719C129.905 20.6663 129.8 20.5821 129.725 20.4759C129.632 20.2904 129.62 20.0781 129.69 19.8842C129.761 19.6904 129.909 19.5304 130.104 19.4382Z" fill="black"/>
<path opacity="0.15" d="M130.107 20.48C129.87 20.4367 129.841 20.0515 130.22 19.7763C130.333 19.6768 130.474 19.6101 130.626 19.5844C130.778 19.5585 130.935 19.5747 131.077 19.6309C131.108 19.6537 131.134 19.6823 131.152 19.7148C131.171 19.7473 131.183 19.783 131.185 19.8199C131.189 19.8566 131.185 19.8938 131.173 19.9288C131.16 19.9639 131.141 19.9964 131.115 20.024C131.152 19.8786 131.056 19.7528 130.827 19.7489C130.682 19.7538 130.539 19.7922 130.412 19.8606C130.285 19.9291 130.178 20.0256 130.099 20.1419C130.004 20.2716 130.016 20.4132 130.107 20.48Z" fill="black"/>
<path d="M132.11 16.4116C131.668 15.7787 131.718 15.0122 132.218 14.6977C132.717 14.3832 133.492 14.6388 133.933 15.2716C134.374 15.9045 134.328 16.671 133.824 16.9855C133.321 17.2999 132.551 17.0405 132.11 16.4116Z" fill="#D0AD6B"/>
<path opacity="0.15" d="M132.11 16.4116C131.668 15.7787 131.718 15.0122 132.218 14.6977C132.717 14.3832 133.492 14.6388 133.933 15.2716C134.374 15.9045 134.328 16.671 133.824 16.9855C133.321 17.2999 132.551 17.0405 132.11 16.4116Z" fill="black"/>
<path opacity="0.15" d="M133.862 16.4191C133.792 16.769 133.146 16.8122 132.696 16.2462C132.343 15.802 132.255 15.2281 132.468 14.9726C132.506 14.9288 132.554 14.8927 132.607 14.8664C132.661 14.84 132.719 14.824 132.779 14.8192C132.839 14.8145 132.9 14.8211 132.957 14.8386C133.015 14.8562 133.067 14.8844 133.113 14.9215C132.872 14.8664 132.659 15.008 132.655 15.3421C132.656 15.5567 132.713 15.7678 132.82 15.957C132.927 16.1461 133.083 16.3075 133.271 16.427C133.516 16.5724 133.75 16.5567 133.862 16.4191Z" fill="black"/>
<path d="M124.364 21.3013C124.42 21.3954 124.448 21.5026 124.444 21.6108C124.439 21.7189 124.403 21.8238 124.339 21.9135C124.275 22.0033 124.185 22.0744 124.081 22.1188C123.976 22.1632 123.861 22.1792 123.747 22.165C123.634 22.1508 123.526 22.1069 123.437 22.0383C123.349 21.9697 123.283 21.8791 123.245 21.7767C123.208 21.6743 123.202 21.5641 123.227 21.4585C123.253 21.353 123.309 21.2564 123.39 21.1793C123.537 21.0766 123.721 21.0319 123.903 21.0546C124.085 21.0773 124.25 21.1658 124.364 21.3013Z" fill="#D0AD6B"/>
<path opacity="0.15" d="M124.364 21.3013C124.42 21.3954 124.448 21.5026 124.444 21.6108C124.439 21.7189 124.403 21.8238 124.339 21.9135C124.275 22.0033 124.185 22.0744 124.081 22.1188C123.976 22.1632 123.861 22.1792 123.747 22.165C123.634 22.1508 123.526 22.1069 123.437 22.0383C123.349 21.9697 123.283 21.8791 123.245 21.7767C123.208 21.6743 123.202 21.5641 123.227 21.4585C123.253 21.353 123.309 21.2564 123.39 21.1793C123.537 21.0766 123.721 21.0319 123.903 21.0546C124.085 21.0773 124.25 21.1658 124.364 21.3013Z" fill="black"/>
<path opacity="0.15" d="M123.436 21.4822C123.436 21.2897 123.769 21.2032 124.073 21.4469C124.179 21.5185 124.262 21.618 124.31 21.7331C124.358 21.8483 124.37 21.9743 124.343 22.0955C124.328 22.1227 124.307 22.1468 124.283 22.1665C124.258 22.1861 124.229 22.2007 124.198 22.2095C124.166 22.2183 124.135 22.2211 124.102 22.2177C124.07 22.2143 124.038 22.2049 124.01 22.1898C124.144 22.1898 124.239 22.0955 124.202 21.9186C124.176 21.8026 124.12 21.6946 124.038 21.6047C123.957 21.5146 123.853 21.4455 123.736 21.4037C123.684 21.3813 123.626 21.3769 123.57 21.3913C123.516 21.4057 123.468 21.4379 123.436 21.4822Z" fill="black"/>
<path d="M127.86 22.5041C128.447 22.5512 128.893 22.9286 128.851 23.3453C128.809 23.7619 128.306 24.0607 127.719 24.0135C127.132 23.9664 126.691 23.5851 126.728 23.1684C126.766 22.7517 127.274 22.453 127.86 22.5041Z" fill="#D0AD6B"/>
<path opacity="0.15" d="M127.86 22.5041C128.447 22.5512 128.893 22.9286 128.851 23.3453C128.809 23.7619 128.306 24.0607 127.719 24.0135C127.132 23.9664 126.691 23.5851 126.728 23.1684C126.766 22.7517 127.274 22.453 127.86 22.5041Z" fill="black"/>
<path opacity="0.15" d="M127.064 23.4475C126.885 23.247 127.156 22.8814 127.702 22.8972C128.118 22.8972 128.534 23.1212 128.584 23.3531C128.595 23.3955 128.598 23.4398 128.591 23.483C128.584 23.5263 128.566 23.5677 128.542 23.6045C128.516 23.6414 128.484 23.673 128.445 23.6974C128.406 23.7218 128.364 23.7384 128.317 23.7463C128.464 23.64 128.472 23.4592 128.272 23.306C128.14 23.2085 127.985 23.1429 127.821 23.1148C127.656 23.0867 127.486 23.097 127.327 23.1448C127.119 23.192 127.024 23.3257 127.064 23.4475Z" fill="black"/>
<path d="M131.14 22.1897C131.247 22.0849 131.394 22.0227 131.548 22.0154C131.703 22.0081 131.854 22.0563 131.973 22.1503C132.034 22.2835 132.047 22.4318 132.011 22.5729C131.975 22.714 131.893 22.8404 131.775 22.9333C131.656 23.0262 131.51 23.0806 131.356 23.0882C131.203 23.0958 131.051 23.0564 130.924 22.9758C130.844 22.8439 130.822 22.6879 130.863 22.5411C130.903 22.3942 131.003 22.2681 131.14 22.1897Z" fill="#D0AD6B"/>
<path opacity="0.15" d="M131.14 22.1897C131.247 22.0849 131.394 22.0227 131.548 22.0154C131.703 22.0081 131.854 22.0563 131.973 22.1503C132.034 22.2835 132.047 22.4318 132.011 22.5729C131.975 22.714 131.893 22.8404 131.775 22.9333C131.656 23.0262 131.51 23.0806 131.356 23.0882C131.203 23.0958 131.051 23.0564 130.924 22.9758C130.844 22.8439 130.822 22.6879 130.863 22.5411C130.903 22.3942 131.003 22.2681 131.14 22.1897Z" fill="black"/>
<path opacity="0.15" d="M131.228 22.9758C131.049 22.9758 130.999 22.677 131.253 22.4529C131.327 22.371 131.426 22.3114 131.536 22.2814C131.646 22.2514 131.764 22.2523 131.873 22.2839C131.92 22.3142 131.953 22.361 131.964 22.4141C131.975 22.4671 131.963 22.522 131.931 22.5669C131.931 22.4569 131.865 22.3704 131.698 22.3861C131.592 22.398 131.491 22.4344 131.403 22.492C131.315 22.5495 131.244 22.6266 131.195 22.7163C131.132 22.8107 131.153 22.9128 131.228 22.9758Z" fill="black"/>
<path d="M129.908 13.3375C129.826 13.3355 129.746 13.3156 129.673 13.2793C129.6 13.2431 129.537 13.1915 129.49 13.1286C129.442 13.0657 129.41 12.9932 129.396 12.9167C129.383 12.8403 129.388 12.7619 129.413 12.6877C129.436 12.6136 129.478 12.5457 129.535 12.4893C129.591 12.4329 129.66 12.3895 129.737 12.3627C129.814 12.3358 129.896 12.326 129.978 12.3343C130.06 12.3424 130.138 12.3683 130.207 12.4098C130.566 12.5121 130.795 12.8029 130.711 13.0624C130.641 13.1974 130.518 13.3016 130.368 13.3529C130.218 13.4042 130.054 13.3987 129.908 13.3375Z" fill="#D0AD6B"/>
<path opacity="0.15" d="M129.908 13.3375C129.826 13.3355 129.746 13.3156 129.673 13.2793C129.6 13.2431 129.537 13.1915 129.49 13.1286C129.442 13.0657 129.41 12.9932 129.396 12.9167C129.383 12.8403 129.388 12.7619 129.413 12.6877C129.436 12.6136 129.478 12.5457 129.535 12.4893C129.591 12.4329 129.66 12.3895 129.737 12.3627C129.814 12.3358 129.896 12.326 129.978 12.3343C130.06 12.3424 130.138 12.3683 130.207 12.4098C130.566 12.5121 130.795 12.8029 130.711 13.0624C130.641 13.1974 130.518 13.3016 130.368 13.3529C130.218 13.4042 130.054 13.3987 129.908 13.3375Z" fill="black"/>
<path opacity="0.15" d="M130.545 12.846C130.632 12.9954 130.407 13.188 130.066 13.1134C129.8 13.0544 129.584 12.8697 129.579 12.7203C129.579 12.6933 129.585 12.6665 129.596 12.6417C129.607 12.6168 129.624 12.5944 129.645 12.5757C129.665 12.557 129.689 12.5424 129.716 12.5328C129.743 12.5231 129.771 12.5188 129.8 12.5198C129.692 12.5669 129.663 12.677 129.766 12.8029C129.836 12.8794 129.925 12.9391 130.024 12.9767C130.123 13.0144 130.23 13.0288 130.336 13.019C130.47 12.9994 130.549 12.9247 130.545 12.846Z" fill="black"/>
<path d="M125.816 17.2917C125.846 17.44 125.812 17.5929 125.724 17.7182C125.635 17.8435 125.498 17.9316 125.343 17.9638C125.056 17.9638 124.809 17.7004 124.789 17.3467C124.764 17.2008 124.798 17.0513 124.886 16.9287C124.973 16.806 125.106 16.7194 125.259 16.6863C125.542 16.6588 125.787 16.9379 125.816 17.2917Z" fill="#D0AD6B"/>
<path opacity="0.15" d="M125.816 17.2917C125.846 17.44 125.812 17.5929 125.724 17.7182C125.635 17.8435 125.498 17.9316 125.343 17.9638C125.056 17.9638 124.809 17.7004 124.789 17.3467C124.764 17.2008 124.798 17.0513 124.886 16.9287C124.973 16.806 125.106 16.7194 125.259 16.6863C125.542 16.6588 125.787 16.9379 125.816 17.2917Z" fill="black"/>
<path opacity="0.15" d="M125.096 16.895C125.217 16.7693 125.487 16.895 125.513 17.2252C125.536 17.3309 125.527 17.441 125.487 17.542C125.446 17.6432 125.375 17.731 125.284 17.7952C125.257 17.8044 125.228 17.8085 125.2 17.8071C125.172 17.8058 125.144 17.7991 125.118 17.7873C125.093 17.7756 125.069 17.7591 125.051 17.7388C125.032 17.7185 125.018 17.6949 125.009 17.6694C125.092 17.748 125.217 17.7362 125.3 17.6026C125.354 17.5156 125.385 17.4174 125.389 17.3166C125.394 17.2158 125.372 17.1156 125.325 17.0248C125.275 16.9107 125.179 16.8636 125.096 16.895Z" fill="black"/>
<path d="M130.312 16.8006C130.281 16.7131 130.276 16.6192 130.297 16.5291C130.318 16.4391 130.366 16.3564 130.434 16.29C130.502 16.2237 130.587 16.1762 130.682 16.1528C130.776 16.1296 130.876 16.1312 130.97 16.1577C131.064 16.1843 131.147 16.2346 131.213 16.3033C131.278 16.3719 131.323 16.4562 131.341 16.5469C131.358 16.6377 131.35 16.7312 131.316 16.8176C131.281 16.904 131.222 16.9796 131.145 17.0364C131.074 17.0729 130.996 17.0958 130.916 17.1036C130.835 17.1115 130.754 17.1043 130.676 17.0823C130.599 17.0604 130.527 17.0243 130.465 16.9758C130.402 16.9275 130.35 16.8679 130.312 16.8006Z" fill="#D0AD6B"/>
<path opacity="0.15" d="M130.312 16.8006C130.281 16.7131 130.276 16.6192 130.297 16.5291C130.318 16.4391 130.366 16.3564 130.434 16.29C130.502 16.2237 130.587 16.1762 130.682 16.1528C130.776 16.1296 130.876 16.1312 130.97 16.1577C131.064 16.1843 131.147 16.2346 131.213 16.3033C131.278 16.3719 131.323 16.4562 131.341 16.5469C131.358 16.6377 131.35 16.7312 131.316 16.8176C131.281 16.904 131.222 16.9796 131.145 17.0364C131.074 17.0729 130.996 17.0958 130.916 17.1036C130.835 17.1115 130.754 17.1043 130.676 17.0823C130.599 17.0604 130.527 17.0243 130.465 16.9758C130.402 16.9275 130.35 16.8679 130.312 16.8006Z" fill="black"/>
<path opacity="0.15" d="M131.136 16.773C131.107 16.9381 130.807 16.9656 130.583 16.714C130.503 16.6373 130.447 16.541 130.424 16.4359C130.399 16.3309 130.406 16.2215 130.445 16.1204C130.463 16.0989 130.484 16.0809 130.508 16.0674C130.533 16.0537 130.56 16.0449 130.588 16.0412C130.616 16.0376 130.645 16.0392 130.673 16.0461C130.701 16.0529 130.726 16.0649 130.749 16.0811C130.633 16.0811 130.536 16.1323 130.541 16.2895C130.547 16.3906 130.579 16.4888 130.635 16.5757C130.689 16.6626 130.765 16.7356 130.857 16.7887C130.898 16.8184 130.948 16.8332 131 16.8303C131.051 16.8273 131.1 16.807 131.136 16.773Z" fill="black"/>
<path d="M123.844 14.8431C123.766 14.9777 123.635 15.0777 123.478 15.1218C123.323 15.1659 123.156 15.1506 123.011 15.079C122.874 15.0287 122.756 14.939 122.676 14.8226C122.595 14.7063 122.555 14.5689 122.56 14.4298C122.566 14.2907 122.617 14.1567 122.708 14.0466C122.798 13.9366 122.923 13.8559 123.064 13.8159C123.205 13.7759 123.356 13.7786 123.496 13.8235C123.635 13.8684 123.756 13.9534 123.842 14.0665C123.928 14.1797 123.975 14.3154 123.975 14.4546C123.975 14.5938 123.929 14.7296 123.844 14.8431Z" fill="#D0AD6B"/>
<path opacity="0.15" d="M123.844 14.8431C123.766 14.9777 123.635 15.0777 123.478 15.1218C123.323 15.1659 123.156 15.1506 123.011 15.079C122.874 15.0287 122.756 14.939 122.676 14.8226C122.595 14.7063 122.555 14.5689 122.56 14.4298C122.566 14.2907 122.617 14.1567 122.708 14.0466C122.798 13.9366 122.923 13.8559 123.064 13.8159C123.205 13.7759 123.356 13.7786 123.496 13.8235C123.635 13.8684 123.756 13.9534 123.842 14.0665C123.928 14.1797 123.975 14.3154 123.975 14.4546C123.975 14.5938 123.929 14.7296 123.844 14.8431Z" fill="black"/>
<path opacity="0.15" d="M123.556 14.1121C123.735 14.0845 123.856 14.3479 123.669 14.627C123.519 14.8471 123.253 14.9768 123.111 14.9297C123.057 14.911 123.014 14.8734 122.99 14.8249C122.966 14.7763 122.963 14.7208 122.982 14.6702C122.982 14.7803 123.098 14.8432 123.256 14.7921C123.358 14.7563 123.449 14.6979 123.521 14.622C123.594 14.546 123.645 14.4547 123.673 14.3557C123.685 14.23 123.639 14.1356 123.556 14.1121Z" fill="black"/>
<path d="M128.959 18.7425C128.789 18.8644 128.585 18.9345 128.372 18.9434C128.159 18.9524 127.948 18.8997 127.768 18.7925C127.588 18.6853 127.447 18.5286 127.364 18.3435C127.281 18.1584 127.259 17.9537 127.303 17.7569C127.346 17.5599 127.452 17.3803 127.606 17.2419C127.761 17.1035 127.956 17.013 128.167 16.9825C128.377 16.9521 128.593 16.9831 128.785 17.0715C128.975 17.1598 129.134 17.3012 129.237 17.4768C129.376 17.68 129.425 17.9268 129.374 18.1637C129.321 18.4007 129.172 18.6086 128.959 18.7425Z" fill="#D0AD6B"/>
<path opacity="0.15" d="M128.959 18.7425C128.789 18.8644 128.585 18.9345 128.372 18.9434C128.159 18.9524 127.948 18.8997 127.768 18.7925C127.588 18.6853 127.447 18.5286 127.364 18.3435C127.281 18.1584 127.259 17.9537 127.303 17.7569C127.346 17.5599 127.452 17.3803 127.606 17.2419C127.761 17.1035 127.956 17.013 128.167 16.9825C128.377 16.9521 128.593 16.9831 128.785 17.0715C128.975 17.1598 129.134 17.3012 129.237 17.4768C129.376 17.68 129.425 17.9268 129.374 18.1637C129.321 18.4007 129.172 18.6086 128.959 18.7425Z" fill="black"/>
<path opacity="0.15" d="M128.372 17.2093C128.047 17.2093 127.752 17.5238 127.847 17.9955C127.944 18.4671 128.601 18.8052 128.922 18.4947C128.755 18.4834 128.596 18.4304 128.459 18.3413C128.323 18.2521 128.214 18.13 128.143 17.9876C128.102 17.9229 128.075 17.8509 128.064 17.7759C128.053 17.7009 128.058 17.6246 128.079 17.5517C128.101 17.4788 128.138 17.4108 128.188 17.3519C128.238 17.293 128.301 17.2445 128.372 17.2093Z" fill="black"/>
<path d="M90.4375 55.2912C90.3517 55.2951 90.2669 55.2739 90.1944 55.2306C90.1219 55.1871 90.0655 55.1237 90.0326 55.0488C89.9998 54.974 89.9923 54.8914 90.0111 54.8123C90.03 54.7332 90.0742 54.6616 90.1378 54.6072L90.5915 54.1827C90.6308 54.1457 90.6775 54.1165 90.7288 54.0966C90.7801 54.0768 90.8351 54.0667 90.8906 54.0668C90.9465 54.067 91.001 54.0775 91.0519 54.0977C91.1028 54.1179 91.1501 54.1475 91.1892 54.1846C91.2283 54.2218 91.2592 54.2658 91.2801 54.3144C91.301 54.3628 91.3119 54.4147 91.311 54.4671C91.311 54.5195 91.3001 54.5713 91.2783 54.6196C91.2574 54.6679 91.2265 54.7118 91.1865 54.7487L90.7372 55.1732C90.6981 55.2108 90.6515 55.2406 90.6 55.2609C90.5486 55.2812 90.4933 55.2915 90.4375 55.2912Z" fill="#E0E0E0"/>
<path d="M92.5937 53.2435C92.5083 53.2475 92.4237 53.2263 92.351 53.1829C92.2783 53.1395 92.2219 53.0761 92.1892 53.0012C92.1565 52.9263 92.1483 52.8437 92.1674 52.7646C92.1865 52.6856 92.231 52.614 92.2946 52.5595L93.1519 51.7734C93.231 51.6983 93.3392 51.6562 93.451 51.6562C93.5637 51.6562 93.6719 51.6983 93.751 51.7734C93.8301 51.8485 93.8756 51.9502 93.8756 52.0564C93.8756 52.1625 93.8301 52.2644 93.751 52.3394L92.8937 53.1256C92.8546 53.1632 92.8083 53.193 92.7565 53.2133C92.7046 53.2336 92.6501 53.2438 92.5937 53.2435ZM95.1619 50.8221C95.0765 50.8252 94.9928 50.8034 94.921 50.7597C94.8492 50.716 94.7928 50.6525 94.761 50.5778C94.7283 50.5032 94.721 50.4209 94.7401 50.3423C94.7592 50.2636 94.8028 50.1924 94.8665 50.1382L95.7201 49.352C95.7992 49.277 95.9074 49.2348 96.0192 49.2348C96.1319 49.2348 96.2401 49.277 96.3192 49.352C96.3983 49.4271 96.4428 49.5289 96.4428 49.635C96.4428 49.7412 96.3983 49.8429 96.3192 49.9181L95.4619 50.7278C95.4219 50.7633 95.3746 50.7909 95.3228 50.8091C95.2719 50.8273 95.2174 50.8358 95.1619 50.8339V50.8221ZM97.7346 48.4047C97.6483 48.4087 97.5637 48.3875 97.491 48.3441C97.4192 48.3007 97.3619 48.2372 97.3292 48.1624C97.2965 48.0875 97.2892 48.0049 97.3083 47.9258C97.3265 47.8468 97.371 47.7752 97.4346 47.7207L98.2919 46.9346C98.331 46.8976 98.3783 46.8685 98.4292 46.8485C98.481 46.8287 98.5355 46.8186 98.591 46.8187C98.6465 46.8189 98.7019 46.8294 98.7528 46.8497C98.8037 46.8698 98.8501 46.8994 98.8892 46.9365C98.9283 46.9737 98.9592 47.0178 98.9801 47.0663C99.001 47.1147 99.0119 47.1666 99.0119 47.219C99.0119 47.2714 99.001 47.3232 98.9792 47.3715C98.9583 47.4198 98.9265 47.4637 98.8874 47.5006L98.0337 48.2868C97.9965 48.3265 97.9501 48.3585 97.8983 48.3809C97.8465 48.4032 97.791 48.4153 97.7346 48.4165V48.4047ZM100.303 45.9833C100.216 45.9873 100.132 45.9661 100.059 45.9227C99.9865 45.8793 99.9301 45.8159 99.8974 45.741C99.8646 45.6662 99.8574 45.5835 99.8765 45.5044C99.8946 45.4253 99.9392 45.3537 100.003 45.2994L100.86 44.5132C100.94 44.4381 101.048 44.3961 101.161 44.3966C101.274 44.3969 101.382 44.4396 101.462 44.5151C101.541 44.5908 101.586 44.693 101.586 44.7996C101.585 44.9061 101.539 45.0081 101.459 45.0831L100.602 45.8889C100.562 45.9245 100.515 45.9521 100.464 45.9703C100.412 45.9885 100.357 45.997 100.303 45.9951V45.9833ZM102.87 43.5658C102.786 43.5689 102.701 43.5472 102.629 43.5034C102.557 43.4597 102.502 43.3963 102.469 43.3216C102.437 43.2469 102.43 43.1646 102.449 43.086C102.467 43.0074 102.512 42.9361 102.575 42.8819L103.407 42.0958C103.487 42.0207 103.595 41.9785 103.707 41.9785C103.819 41.9785 103.927 42.0207 104.006 42.0958C104.086 42.1708 104.131 42.2726 104.131 42.3787C104.131 42.4849 104.086 42.5868 104.006 42.6618L103.149 43.4676C103.075 43.536 102.975 43.5753 102.87 43.5777V43.5658ZM105.443 41.1485C105.357 41.1524 105.272 41.1312 105.2 41.0878C105.127 41.0445 105.071 40.981 105.038 40.9061C105.006 40.8312 104.997 40.7486 105.016 40.6696C105.036 40.5905 105.079 40.5189 105.143 40.4645L106.001 39.6547C106.081 39.5797 106.189 39.5377 106.302 39.5381C106.415 39.5384 106.523 39.5811 106.602 39.6567C106.682 39.7323 106.726 39.8346 106.726 39.9411C106.726 40.0476 106.68 40.1496 106.6 40.2247L105.743 41.058C105.702 41.0928 105.655 41.1198 105.604 41.1373C105.552 41.1548 105.497 41.1626 105.443 41.1602V41.1485ZM108.011 38.727C107.926 38.731 107.84 38.7099 107.768 38.6664C107.696 38.6231 107.639 38.5596 107.606 38.4848C107.573 38.4099 107.566 38.3272 107.585 38.2481C107.604 38.1692 107.647 38.0975 107.711 38.0431L108.568 37.2373C108.648 37.1622 108.756 37.12 108.868 37.12C108.981 37.12 109.088 37.1622 109.168 37.2373C109.247 37.3123 109.292 37.4142 109.292 37.5203C109.292 37.6265 109.247 37.7282 109.168 37.8033L108.311 38.6092C108.273 38.6489 108.226 38.6809 108.175 38.7032C108.124 38.7255 108.067 38.7376 108.011 38.7389V38.727ZM110.583 36.3411C110.497 36.345 110.413 36.3238 110.34 36.2805C110.267 36.2371 110.211 36.1736 110.178 36.0987C110.146 36.0238 110.138 35.9413 110.156 35.8622C110.176 35.7831 110.22 35.7115 110.284 35.6571L111.136 34.8709C111.216 34.7959 111.324 34.7537 111.436 34.7537C111.549 34.7537 111.656 34.7959 111.736 34.8709C111.816 34.946 111.86 35.0478 111.86 35.154C111.86 35.2601 111.816 35.3619 111.736 35.437L110.879 36.2428C110.797 36.3106 110.692 36.3459 110.583 36.3411ZM113.151 33.9197C113.066 33.9236 112.981 33.9025 112.908 33.859C112.836 33.8157 112.779 33.7522 112.746 33.6774C112.714 33.6025 112.706 33.5198 112.725 33.4408C112.744 33.3618 112.788 33.2901 112.852 33.2358L113.709 32.4496C113.748 32.4116 113.795 32.3813 113.846 32.3606C113.897 32.34 113.953 32.3292 114.009 32.3292C114.065 32.3292 114.12 32.34 114.172 32.3606C114.223 32.3813 114.269 32.4116 114.308 32.4496C114.349 32.4862 114.381 32.5302 114.403 32.5788C114.425 32.6275 114.436 32.6798 114.436 32.7326C114.436 32.7854 114.425 32.8377 114.403 32.8863C114.381 32.9349 114.349 32.979 114.308 33.0156L113.451 33.8018C113.369 33.8706 113.261 33.9059 113.151 33.9V33.9197Z" fill="#E0E0E0"/>
<path d="M115.719 31.4824C115.633 31.4864 115.548 31.4652 115.475 31.4218C115.404 31.3785 115.346 31.3149 115.314 31.2401C115.281 31.1652 115.274 31.0826 115.293 31.0036C115.311 30.9245 115.355 30.8529 115.419 30.7985L115.869 30.3739C115.948 30.2989 116.056 30.2567 116.168 30.2567C116.281 30.2567 116.388 30.2989 116.468 30.3739C116.547 30.449 116.592 30.5508 116.592 30.657C116.592 30.7631 116.547 30.8649 116.468 30.9399L116.018 31.3645C115.979 31.4021 115.933 31.432 115.881 31.4522C115.83 31.4725 115.774 31.4827 115.719 31.4824Z" fill="#E0E0E0"/>
<path d="M127.994 33.8367C127.186 33.8364 126.379 33.7813 125.58 33.6716C121.315 33.0833 117.456 30.9554 114.819 27.7356C112.181 24.5159 110.968 20.4554 111.436 16.4084C111.903 12.3613 114.015 8.64332 117.326 6.03651C120.636 3.42971 124.889 2.13739 129.188 2.43141C133.488 2.72544 137.499 4.5829 140.378 7.61301C143.257 10.6431 144.779 14.6096 144.625 18.6781C144.47 22.7465 142.65 26.5996 139.548 29.4269C136.446 32.254 132.305 33.8348 127.994 33.8367ZM127.94 3.43987C124.473 3.44827 121.11 4.56129 118.396 6.5988C115.682 8.63628 113.776 11.4791 112.985 14.6671C112.194 17.8552 112.566 21.2018 114.039 24.1657C115.513 27.1294 118.003 29.5369 121.106 30.9984C124.207 32.46 127.742 32.8901 131.136 32.2192C134.528 31.5482 137.583 29.8154 139.805 27.3013C142.026 24.7872 143.284 21.6388 143.375 18.3656C143.466 15.0925 142.385 11.8861 140.306 9.26533C138.87 7.4492 137.004 5.97621 134.856 4.96452C132.708 3.95285 130.34 3.43066 127.94 3.43987Z" fill="#455A64"/>
<path d="M117.068 6.96057L116.092 7.8224L137.988 29.9353L138.964 29.0735L117.068 6.96057Z" fill="#455A64"/>
</svg>
