<svg width="24" height="24" viewBox="0 0 24 24" fill="none" xmlns="http://www.w3.org/2000/svg">
<path d="M15.1993 11.1384C15.3152 11.2934 15.4979 11.3848 15.6913 11.3848C15.8848 11.3848 16.0675 11.2934 16.1834 11.1384L18.6462 7.44522C19.128 6.80296 19.3828 6.03814 19.3828 5.23243C19.3828 3.19686 17.7269 1.5 15.6913 1.5C13.6558 1.5 11.9999 3.19686 11.9999 5.23243C11.9999 6.03752 12.2547 6.80296 12.7365 7.44522L15.1993 11.1384ZM15.6913 3.38672C16.7091 3.38672 17.537 4.21466 17.537 5.23243C17.537 6.25019 16.7091 7.07813 15.6913 7.07813C14.6736 7.07813 13.8456 6.25019 13.8456 5.23243C13.8456 4.21466 14.6736 3.38672 15.6913 3.38672Z" fill="url(#paint0_linear_625_18311)"/>
<path d="M1.88694 19.9952L7.69337 22.3013V7.39974L2.34357 5.27623C2.1567 5.20114 1.93981 5.22398 1.77038 5.33813C1.60155 5.45289 1.5 5.64337 1.5 5.84762V19.4238C1.5 19.6756 1.65323 19.9015 1.88694 19.9952Z" fill="url(#paint1_linear_625_18311)"/>
<path d="M22.1131 7.73738L20.2668 7.01514C20.1062 7.42669 19.9016 7.82224 19.6303 8.1838L17.2073 11.8211C16.9633 12.1491 16.6488 12.368 16.3066 12.4934V20.3328L21.6565 22.4563C21.8407 22.5303 22.0563 22.5115 22.2297 22.3944C22.3985 22.2797 22.5 22.0892 22.5 21.8849V8.30877C22.5 8.05702 22.3468 7.8311 22.1131 7.73738Z" fill="url(#paint2_linear_625_18311)"/>
<path d="M15.0762 12.4958C14.7383 12.3749 14.433 12.1682 14.214 11.8756L11.7128 8.12768C11.4067 7.7213 11.1701 7.25761 11.0096 6.75977L8.92383 7.45519V22.3279L15.0762 20.2771V12.4958Z" fill="url(#paint3_linear_625_18311)"/>
<defs>
<linearGradient id="paint0_linear_625_18311" x1="2411.93" y1="3698.41" x2="2411.93" y2="2955.17" gradientUnits="userSpaceOnUse">
<stop offset="0.08" stop-color="#BD8430"/>
<stop offset="0.35" stop-color="#D78732"/>
<stop offset="0.55" stop-color="#D79D4A"/>
<stop offset="0.82" stop-color="#C07D2A"/>
<stop offset="1" stop-color="#BD8430"/>
</linearGradient>
<linearGradient id="paint1_linear_625_18311" x1="2014.78" y1="6388.92" x2="2014.78" y2="5105.52" gradientUnits="userSpaceOnUse">
<stop offset="0.08" stop-color="#BD8430"/>
<stop offset="0.35" stop-color="#D78732"/>
<stop offset="0.55" stop-color="#D79D4A"/>
<stop offset="0.82" stop-color="#C07D2A"/>
<stop offset="1" stop-color="#BD8430"/>
</linearGradient>
<linearGradient id="paint2_linear_625_18311" x1="2029.57" y1="5798.44" x2="2029.57" y2="4634.11" gradientUnits="userSpaceOnUse">
<stop offset="0.08" stop-color="#BD8430"/>
<stop offset="0.35" stop-color="#D78732"/>
<stop offset="0.55" stop-color="#D79D4A"/>
<stop offset="0.82" stop-color="#C07D2A"/>
<stop offset="1" stop-color="#BD8430"/>
</linearGradient>
<linearGradient id="paint3_linear_625_18311" x1="2008.87" y1="5829.25" x2="2008.87" y2="4658.68" gradientUnits="userSpaceOnUse">
<stop offset="0.08" stop-color="#BD8430"/>
<stop offset="0.35" stop-color="#D78732"/>
<stop offset="0.55" stop-color="#D79D4A"/>
<stop offset="0.82" stop-color="#C07D2A"/>
<stop offset="1" stop-color="#BD8430"/>
</linearGradient>
</defs>
</svg>
