<svg width="24" height="24" viewBox="0 0 24 24" fill="none" xmlns="http://www.w3.org/2000/svg">
<path d="M13.2389 11.1831H15.2359V12.4081H13.2389C12.8959 12.4081 12.6182 12.6837 12.6182 13.0233V15.0029H11.3822V13.0233C11.3822 12.6837 11.1045 12.4081 10.7615 12.4081H8.76404V11.1831H10.7615C11.1045 11.1831 11.3822 10.9079 11.3822 10.568V8.58838H12.6182V10.568C12.6182 10.9079 12.8959 11.1831 13.2389 11.1831Z" fill="url(#paint0_linear_625_18362)"/>
<path d="M20.9787 7.19566L20.9783 7.17556C20.9684 6.65227 20.9589 6.15768 20.9589 5.68196C20.9589 4.96099 20.3671 4.37495 19.6401 4.37495C16.8262 4.37495 14.6906 3.57975 12.9191 1.87248C12.4035 1.37584 11.5957 1.37584 11.0801 1.87248C9.30903 3.57975 7.17338 4.37495 4.35992 4.37495C3.63287 4.37495 3.04113 4.96099 3.04113 5.68196C3.04113 6.16752 3.03161 6.66703 3.02126 7.19607C2.97368 9.66491 2.9145 12.7374 3.95481 15.5266C4.5271 17.0604 5.39319 18.3928 6.5295 19.4878C7.82388 20.7349 9.51883 21.7241 11.5676 22.4278C11.707 22.4758 11.8523 22.5 11.9996 22.5C12.1469 22.5 12.2926 22.4758 12.4316 22.4278C14.4803 21.7241 16.1757 20.7349 17.4701 19.4878C18.6064 18.3928 19.4725 17.0599 20.0448 15.5266C21.0855 12.737 21.0263 9.6645 20.9787 7.19566ZM16.4774 13.0232C16.4774 13.3628 16.1997 13.6384 15.8567 13.6384H13.8596V15.618C13.8596 15.9575 13.5816 16.2331 13.2389 16.2331H10.7615C10.4189 16.2331 10.1408 15.9575 10.1408 15.618V13.6384H8.14334C7.8003 13.6384 7.52263 13.3628 7.52263 13.0232V10.5679C7.52263 10.2284 7.8003 9.95276 8.14334 9.95276H10.1408V7.97318C10.1408 7.63361 10.4189 7.35802 10.7615 7.35802H13.2389C13.5816 7.35802 13.8596 7.63361 13.8596 7.97318V9.95276H15.8567C16.1997 9.95276 16.4774 10.2284 16.4774 10.5679V13.0232Z" fill="url(#paint1_linear_625_18362)"/>
<defs>
<linearGradient id="paint0_linear_625_18362" x1="2112.58" y1="2407.6" x2="2112.58" y2="1925.3" gradientUnits="userSpaceOnUse">
<stop offset="0.08" stop-color="#BD8430"/>
<stop offset="0.35" stop-color="#D78732"/>
<stop offset="0.55" stop-color="#D79D4A"/>
<stop offset="0.82" stop-color="#C07D2A"/>
<stop offset="1" stop-color="#BD8430"/>
</linearGradient>
<linearGradient id="paint1_linear_625_18362" x1="5854.26" y1="7855.5" x2="5854.26" y2="6276.51" gradientUnits="userSpaceOnUse">
<stop offset="0.08" stop-color="#BD8430"/>
<stop offset="0.35" stop-color="#D78732"/>
<stop offset="0.55" stop-color="#D79D4A"/>
<stop offset="0.82" stop-color="#C07D2A"/>
<stop offset="1" stop-color="#BD8430"/>
</linearGradient>
</defs>
</svg>
