<svg width="40" height="40" viewBox="0 0 40 40" fill="none" xmlns="http://www.w3.org/2000/svg">
<g opacity="0.6">
<g filter="url(#filter0_b_186_35369)">
<path fill-rule="evenodd" clip-rule="evenodd" d="M19.9996 1.66626C30.1246 1.66626 38.3329 9.87459 38.3329 19.9996C38.3329 30.1246 30.1246 38.3329 19.9996 38.3329C9.87455 38.3329 1.66622 30.1246 1.66622 19.9996C1.66622 9.87459 9.87455 1.66626 19.9996 1.66626ZM23.6779 14.5113C23.9815 14.1969 24.1495 13.7759 24.1457 13.3389C24.1419 12.9019 23.9666 12.4839 23.6576 12.1749C23.3486 11.8659 22.9305 11.6906 22.4936 11.6868C22.0566 11.683 21.6356 11.851 21.3212 12.1546L14.6546 18.8213C14.3421 19.1338 14.1666 19.5577 14.1666 19.9996C14.1666 20.4415 14.3421 20.8654 14.6546 21.1779L21.3212 27.8446C21.6356 28.1482 22.0566 28.3162 22.4936 28.3124C22.9305 28.3086 23.3486 28.1333 23.6576 27.8243C23.9666 27.5153 24.1419 27.0973 24.1457 26.6603C24.1495 26.2233 23.9815 25.8023 23.6779 25.4879L18.1896 19.9996L23.6779 14.5113Z" fill="white"/>
</g>
</g>
<defs>
<filter id="filter0_b_186_35369" x="-38.3337" y="-38.3337" width="116.667" height="116.667" filterUnits="userSpaceOnUse" color-interpolation-filters="sRGB">
<feFlood flood-opacity="0" result="BackgroundImageFix"/>
<feGaussianBlur in="BackgroundImage" stdDeviation="20"/>
<feComposite in2="SourceAlpha" operator="in" result="effect1_backgroundBlur_186_35369"/>
<feBlend mode="normal" in="SourceGraphic" in2="effect1_backgroundBlur_186_35369" result="shape"/>
</filter>
</defs>
</svg>
